<?xml version="1.0" encoding="UTF-8"?>
<svg version="1.1" xmlns="http://www.w3.org/2000/svg" width="512" height="367">
<path d="M0 0 C8.63493999 3.26989312 16.16108979 8.34547715 23.859375 13.3671875 C27.63844082 15.82068814 31.50190097 18.03443488 35.47729492 20.15332031 C37.49346456 21.31669435 39.27392431 22.61146358 41.09765625 24.0546875 C44.63676202 26.79575962 48.3700808 29.10055017 52.22265625 31.3671875 C58.23489469 34.91442336 64.12702197 38.61413188 69.97265625 42.4296875 C70.79741455 42.96770996 71.62217285 43.50573242 72.47192383 44.06005859 C77.21800552 47.16272769 81.95373974 50.28091761 86.6875 53.40234375 C88.24210937 54.42400635 88.24210937 54.42400635 89.828125 55.46630859 C91.84506772 56.79208416 93.85949885 58.12169057 95.87109375 59.45556641 C96.79019531 60.05933105 97.70929688 60.6630957 98.65625 61.28515625 C99.46634521 61.82035889 100.27644043 62.35556152 101.11108398 62.90698242 C103.50103488 64.3214835 105.87067427 65.34472457 108.47265625 66.3046875 C108.47265625 66.9646875 108.47265625 67.6246875 108.47265625 68.3046875 C117.33299276 68.52430018 126.1897227 68.65807609 135.0527277 68.69071865 C139.1714003 68.70840609 143.28577757 68.75253301 147.40307617 68.86352539 C169.86436712 69.44525122 185.07609687 68.00329736 202.47265625 52.3046875 C203.13265625 51.6446875 203.79265625 50.9846875 204.47265625 50.3046875 C206.02493452 49.27128927 207.597422 48.26812162 209.1796875 47.28125 C213.68567413 44.44379356 218.15926644 41.56444842 222.609375 38.640625 C223.22459015 38.23676575 223.8398053 37.83290649 224.47366333 37.41680908 C227.0108546 35.75055834 229.54708564 34.08284933 232.08325195 32.41503906 C233.96647998 31.17700212 235.85025727 29.93980747 237.734375 28.703125 C238.3303952 28.31163269 238.92641541 27.92014038 239.54049683 27.51678467 C242.74847256 25.41507932 245.97627218 23.3541105 249.2421875 21.34375 C252.42108082 19.50328105 252.42108082 19.50328105 254.47265625 17.3046875 C256.5362898 16.06300969 258.62381297 14.86087509 260.72265625 13.6796875 C261.98710029 12.9663605 263.25141951 12.25281219 264.515625 11.5390625 C265.16708496 11.17232422 265.81854492 10.80558594 266.48974609 10.42773438 C268.44537703 9.32013744 270.39192837 8.19816485 272.3359375 7.0703125 C272.95629883 6.71146973 273.57666016 6.35262695 274.21582031 5.98291016 C275.94927226 4.97940617 277.68169458 3.97412421 279.4140625 2.96875 C285.5471264 -0.36801273 290.4955886 -1.63475346 297.47265625 -0.6953125 C300.58775805 1.08474567 302.07955882 2.05392296 303.16015625 5.4921875 C303.26328125 6.0903125 303.36640625 6.6884375 303.47265625 7.3046875 C304.13265625 7.6346875 304.79265625 7.9646875 305.47265625 8.3046875 C305.04105035 19.75243061 303.54298805 30.68624112 301.33984375 41.91796875 C301.02091271 43.58229534 300.70282861 45.24678442 300.38552856 46.91142273 C299.55206528 51.27089652 298.70659368 55.62795555 297.85858154 59.98461914 C297.18745736 63.44262035 296.52459703 66.9021782 295.86230087 70.36187935 C293.11314391 84.72229452 290.34709661 99.07867293 287.41894531 113.40380859 C287.08960612 115.02182441 286.76027051 116.63984095 286.43093872 118.25785828 C285.81565247 121.27863853 285.19116817 124.29731023 284.56100464 127.3150177 C284.28272969 128.67504032 284.00472937 130.03511917 283.72705078 131.39526367 C283.48391144 132.56594894 283.24077209 133.73663422 282.99026489 134.9427948 C281.93504543 141.61002346 281.93504543 141.61002346 283.86010742 147.85400391 C284.50955322 148.65499512 285.15899902 149.45598633 285.828125 150.28125 C289.19369791 154.62139824 292.36383309 159.00508035 295.3984375 163.578125 C295.82834991 164.22296844 296.25826233 164.86781189 296.70120239 165.53219604 C298.06488587 167.57979742 299.4251428 169.62964705 300.78515625 171.6796875 C301.75023666 173.13075572 302.71540745 174.58176383 303.68066406 176.03271484 C310.86545841 186.84229445 318.00088624 197.68423605 325.08837891 208.55786133 C328.31108278 213.49967533 331.53906487 218.43432351 334.875 223.30078125 C335.35743164 224.00702637 335.83986328 224.71327148 336.33691406 225.44091797 C337.17827372 226.66570168 338.0270875 227.88542307 338.88574219 229.09814453 C341.04642526 232.24428095 341.47265625 233.30569607 341.47265625 237.3046875 C338.94902529 239.07367336 336.54476579 240.53546142 333.84765625 241.9921875 C332.2603617 242.88561413 330.67443842 243.78148103 329.08984375 244.6796875 C327.90406738 245.34677734 327.90406738 245.34677734 326.69433594 246.02734375 C323.71357109 247.74111976 320.84407181 249.60177925 317.97265625 251.4921875 C301.11793077 262.50911727 283.54907193 272.4730934 266.20507812 282.69433594 C261.48041071 285.47881648 256.7574573 288.26619597 252.03515625 291.0546875 C251.11879395 291.59561035 250.20243164 292.1365332 249.25830078 292.69384766 C244.51520302 295.49647026 239.78133849 298.3132187 235.06323242 301.15771484 C232.20416042 302.88086048 229.3385734 304.59295012 226.47265625 306.3046875 C225.54582031 306.86414063 224.61898438 307.42359375 223.6640625 308 C222.45556641 308.70769531 222.45556641 308.70769531 221.22265625 309.4296875 C220.5575 309.82414062 219.89234375 310.21859375 219.20703125 310.625 C217.47265625 311.3046875 217.47265625 311.3046875 214.47265625 310.3046875 C215.30667969 309.34949219 216.14070313 308.39429688 217 307.41015625 C223.62138134 299.80958435 230.14031748 292.14922657 236.47265625 284.3046875 C240.55093233 279.25249474 244.64618694 274.22793294 248.9296875 269.34765625 C249.82349121 268.32816895 249.82349121 268.32816895 250.73535156 267.28808594 C251.92156572 265.93967647 253.11222923 264.59516628 254.30761719 263.25488281 C257.38760523 260.22974006 257.38760523 260.22974006 258.47265625 256.3046875 C259.27703125 255.6653125 260.08140625 255.0259375 260.91015625 254.3671875 C264.94282546 251.15054077 267.94140513 247.18865537 271.1484375 243.17578125 C274.45245685 239.09434559 277.94735118 235.19501054 281.47265625 231.3046875 C282.46265625 231.6346875 283.45265625 231.9646875 284.47265625 232.3046875 C277.54265625 246.6596875 277.54265625 246.6596875 270.47265625 261.3046875 C274.94456539 259.81405112 278.73166332 257.22623112 282.7578125 254.80078125 C285.47265625 253.3046875 285.47265625 253.3046875 287.47265625 253.3046875 C287.80265625 252.6446875 288.13265625 251.9846875 288.47265625 251.3046875 C290.76585337 249.99040457 293.04264358 248.7838041 295.41015625 247.6171875 C296.1158374 247.2670459 296.82151855 246.9169043 297.54858398 246.55615234 C307.80296038 241.57105842 318.46034767 237.28568036 329.47265625 234.3046875 C325.37027281 233.13168661 321.26547366 231.96737444 317.16015625 230.8046875 C315.40928711 230.30388672 315.40928711 230.30388672 313.62304688 229.79296875 C312.50478516 229.47714844 311.38652344 229.16132813 310.234375 228.8359375 C309.20272217 228.54267578 308.17106934 228.24941406 307.1081543 227.94726562 C304.43900362 227.18624878 304.43900362 227.18624878 301.47265625 227.3046875 C301.47265625 226.6446875 301.47265625 225.9846875 301.47265625 225.3046875 C300.40660156 225.211875 299.34054687 225.1190625 298.2421875 225.0234375 C292.3693457 224.28339005 286.81754608 222.49432687 281.16015625 220.8046875 C269.56866806 217.41113715 257.92555619 214.28958731 246.22265625 211.3046875 C245.04030899 211.00292603 245.04030899 211.00292603 243.83407593 210.69506836 C239.38157327 209.5597596 234.92773325 208.42984981 230.47265625 207.3046875 C230.21508545 208.05379395 229.95751465 208.80290039 229.69213867 209.57470703 C229.1716394 211.05366455 229.1716394 211.05366455 228.640625 212.5625 C228.3005542 213.53848145 227.9604834 214.51446289 227.61010742 215.52001953 C224.77665608 222.4567755 219.9781979 225.98996651 213.5234375 229.45703125 C211.47265625 230.3046875 211.47265625 230.3046875 208.47265625 230.3046875 C208.14265625 230.9646875 207.81265625 231.6246875 207.47265625 232.3046875 C205.6875 232.7265625 205.6875 232.7265625 203.41015625 233.0546875 C196.85411181 234.4013909 191.76635584 237.95471722 187.97265625 243.4921875 C184.14985311 251.53416238 186.82443741 261.71695142 188.51953125 270.03515625 C188.732005 271.11042068 188.94447876 272.18568512 189.16339111 273.29353333 C189.6121654 275.54919251 190.06623738 277.80380365 190.52539062 280.05737305 C191.22226381 283.4902543 191.89533628 286.92722717 192.56640625 290.36523438 C193.00769285 292.56799363 193.45035448 294.77047796 193.89453125 296.97265625 C194.0926239 297.99054733 194.29071655 299.00843842 194.49481201 300.05717468 C195.74240692 306.07922418 197.54112059 310.90153238 200.47265625 316.3046875 C201.43965304 320.92636332 200.92237414 324.38795487 198.84765625 328.6171875 C193.78326512 334.34794589 188.29142367 336.854845 180.7109375 337.5625 C172.77473588 337.86734769 165.92641472 336.8060129 159.5546875 331.796875 C155.90071019 328.06478416 154.73151277 324.66732314 154.28515625 319.515625 C154.47265625 317.3046875 154.47265625 317.3046875 155.65234375 314.98046875 C156.83785112 311.11345661 155.29137626 308.56588973 153.59765625 305.1171875 C150.47265625 298.464622 150.47265625 298.464622 150.47265625 296.3046875 C149.81265625 295.9746875 149.15265625 295.6446875 148.47265625 295.3046875 C147.69478553 293.68657318 147.00233799 292.0272249 146.34765625 290.35546875 C143.27768291 282.75368358 139.92927219 275.29183105 136.53417969 267.83032227 C135.82312613 266.26414013 135.11547244 264.69641023 134.41113281 263.12719727 C133.37651109 260.82226872 132.33197244 258.52206778 131.28515625 256.22265625 C130.97666748 255.53084763 130.66817871 254.839039 130.3503418 254.12626648 C126.52931161 245.80715371 121.89328593 239.33488192 113.47265625 235.3046875 C109.93207933 234.11552717 106.32523524 233.16996008 102.72070312 232.1965332 C93.15564066 229.52625123 86.51125041 224.76643815 81.22265625 216.3046875 C80.23851616 213.68031393 79.85037484 211.07462382 79.47265625 208.3046875 C72.73589475 208.93674261 66.27577409 210.08917392 59.67578125 211.5625 C58.6573262 211.78623795 57.63887115 212.00997589 56.58955383 212.24049377 C53.29943692 212.96512434 50.01099317 213.69702532 46.72265625 214.4296875 C44.44133857 214.93471358 42.16000712 215.43967745 39.87866211 215.94458008 C27.14492162 218.77147354 14.43738248 221.67732803 1.77172852 224.7956543 C-8.07483916 227.21821671 -17.95287036 229.49148119 -27.83984375 231.7421875 C-28.63010956 231.9221225 -29.42037537 232.1020575 -30.23458862 232.28744507 C-34.66495406 233.29563739 -39.09589327 234.30127348 -43.52734375 235.3046875 C-42.47530762 235.62284424 -41.42327148 235.94100098 -40.33935547 236.26879883 C-32.96127696 238.52177506 -25.67397335 240.76388189 -18.65234375 243.9921875 C-17.92184814 244.32178467 -17.19135254 244.65138184 -16.4387207 244.9909668 C-9.20044734 248.32808782 -2.24280506 252.16210615 4.6796875 256.10546875 C5.34242676 256.4804248 6.00516602 256.85538086 6.68798828 257.24169922 C8.47265625 258.3046875 8.47265625 258.3046875 11.078125 260.20703125 C14.55950439 261.8029001 16.4355818 260.82737317 19.97265625 259.5546875 C40.68428399 252.29593946 60.73563017 256.91267135 80.046875 266.0390625 C86.96753919 269.47308314 93.25080185 273.74884168 99.47265625 278.3046875 C100.03823242 278.71477051 100.60380859 279.12485352 101.18652344 279.54736328 C112.2524608 287.62710132 122.18647192 296.8013256 131.73046875 306.625 C133.38019039 308.38297556 133.38019039 308.38297556 135.47265625 309.3046875 C135.47265625 310.2946875 135.47265625 311.2846875 135.47265625 312.3046875 C131.90162155 310.98771016 128.89212398 309.40420753 125.72265625 307.3046875 C100.92939717 291.33782865 70.24408964 272.18251968 39.47265625 274.3046875 C38.48265625 274.6346875 37.49265625 274.9646875 36.47265625 275.3046875 C37.55160156 275.95953125 38.63054687 276.614375 39.7421875 277.2890625 C54.08971074 286.015723 68.30422081 294.94269918 82.41015625 304.0546875 C83.04703369 304.46589844 83.68391113 304.87710937 84.34008789 305.30078125 C89.36774203 308.56043379 94.35162355 311.88440271 99.33422852 315.21240234 C102.37504942 317.23961628 105.42265805 319.2561582 108.47265625 321.26953125 C128.01630369 334.19781485 128.01630369 334.19781485 136.3984375 340.80078125 C138.49425267 342.47902767 138.49425267 342.47902767 141.47265625 343.3046875 C141.80265625 344.2946875 142.13265625 345.2846875 142.47265625 346.3046875 C138.10045065 345.73596838 134.59271378 344.65208612 130.60546875 342.78515625 C129.48430664 342.26332764 128.36314453 341.74149902 127.20800781 341.20385742 C126.0165918 340.63900635 124.82517578 340.07415527 123.59765625 339.4921875 C122.34745587 338.90508826 121.09712859 338.31825918 119.84667969 337.73168945 C107.95127478 332.13141289 96.19890756 326.24968514 84.47265625 320.3046875 C81.49540262 318.80086149 78.51630281 317.30078076 75.53515625 315.8046875 C74.89360596 315.48234131 74.25205566 315.15999512 73.59106445 314.82788086 C69.63360952 312.85100193 65.6493844 310.98257062 61.5625 309.2890625 C59.15173083 308.15352263 56.87701995 306.82101528 54.57202148 305.48681641 C49.28557212 302.51007634 43.84673998 299.80048299 38.44702148 297.03637695 C33.84936538 294.66457311 29.32506897 292.28549199 24.97265625 289.484375 C16.46934863 284.05368248 11.14337385 282.60132774 1.11328125 283.9609375 C-4.02569007 284.44616226 -7.78841726 283.0728097 -12.52734375 281.3046875 C-14.51942116 280.92687972 -16.5170834 280.56919544 -18.52734375 280.3046875 C-18.85734375 278.9846875 -19.18734375 277.6646875 -19.52734375 276.3046875 C-18.851875 276.11132812 -18.17640625 275.91796875 -17.48046875 275.71875 C-16.14242187 275.32816406 -16.14242187 275.32816406 -14.77734375 274.9296875 C-13.45476562 274.54683594 -13.45476562 274.54683594 -12.10546875 274.15625 C-9.76653803 273.3836941 -7.69291813 272.46843074 -5.52734375 271.3046875 C-5.52734375 270.6446875 -5.52734375 269.9846875 -5.52734375 269.3046875 C-7.20641066 267.99487217 -7.20641066 267.99487217 -9.39453125 266.73828125 C-10.19761719 266.25294922 -11.00070313 265.76761719 -11.828125 265.26757812 C-12.67761719 264.76419922 -13.52710938 264.26082031 -14.40234375 263.7421875 C-15.24410156 263.23494141 -16.08585937 262.72769531 -16.953125 262.20507812 C-21.17836513 259.64328799 -21.17836513 259.64328799 -25.52734375 257.3046875 C-25.52734375 256.6446875 -25.52734375 255.9846875 -25.52734375 255.3046875 C-26.23544189 255.04421631 -26.94354004 254.78374512 -27.6730957 254.51538086 C-33.01788701 252.24826769 -37.80514445 248.94262083 -42.71484375 245.8671875 C-43.82021484 245.18591797 -44.92558594 244.50464844 -46.06445312 243.80273438 C-47.11826172 243.14466797 -48.17207031 242.48660156 -49.2578125 241.80859375 C-50.70256958 240.90862671 -50.70256958 240.90862671 -52.17651367 239.99047852 C-54.52734375 238.3046875 -54.52734375 238.3046875 -56.52734375 235.3046875 C-55.87572266 234.70140625 -55.87572266 234.70140625 -55.2109375 234.0859375 C-53.34705235 232.11393837 -52.02344644 230.11012491 -50.58984375 227.8046875 C-49.97496094 226.82371094 -49.36007813 225.84273437 -48.7265625 224.83203125 C-48.38028809 224.27628418 -48.03401367 223.72053711 -47.67724609 223.14794922 C-45.43077873 219.54692403 -43.16629102 215.95723959 -40.90234375 212.3671875 C-40.13579468 211.15095703 -40.13579468 211.15095703 -39.35375977 209.91015625 C-35.09435712 203.16757896 -30.75444095 196.47966392 -26.39306641 189.80273438 C-22.62758904 184.0277251 -18.93792969 178.20912165 -15.27734375 172.3671875 C-10.56660794 164.85718455 -5.63849225 157.54739121 -0.52734375 150.3046875 C1.98555192 146.535344 1.4742521 145.37439207 0.76074219 140.98974609 C0.55896362 139.73232605 0.35718506 138.47490601 0.14929199 137.17938232 C-0.89094174 131.22257574 -1.9841345 125.27984641 -3.13671875 119.34375 C-3.51601657 117.36243859 -3.89529901 115.38112414 -4.27388859 113.39967728 C-4.67034573 111.3254152 -5.06788305 109.25136181 -5.46542358 107.17730713 C-9.3317014 86.97629614 -13.15484662 66.77137785 -16.21484375 46.4296875 C-16.33299438 45.66199036 -16.45114502 44.89429321 -16.57287598 44.10333252 C-17.81581604 35.96081132 -18.74903375 27.82955839 -19.296875 19.609375 C-19.35260178 18.86696564 -19.40832855 18.12455627 -19.46574402 17.35964966 C-19.80766715 11.25289997 -19.12697304 7.10427045 -15.02734375 2.4921875 C-10.34652928 -1.60352516 -5.8345659 -1.60518196 0 0 Z M-3.52734375 19.3046875 C-5.24711957 21.02446332 -4.71562147 23.24221512 -4.73925781 25.58862305 C-4.67508301 32.21076721 -3.60178808 38.32091259 -2.13671875 44.76171875 C-1.87332703 45.952314 -1.6099353 47.14290924 -1.33856201 48.36958313 C1.99815154 63.10928836 5.94555169 77.6947507 9.93310547 92.26928711 C11.02874086 96.27419921 12.10985155 100.282883 13.18738937 104.29269695 C14.02748266 107.41250183 14.87510064 110.53022249 15.72507477 113.6473484 C16.12777448 115.12792852 16.5280626 116.60916679 16.92586517 118.09107018 C17.47509273 120.13281986 18.03443657 122.17151912 18.59667969 124.2097168 C18.91167419 125.36658493 19.2266687 126.52345306 19.5512085 127.71537781 C20.18789955 130.45094362 20.18789955 130.45094362 22.47265625 131.3046875 C22.93003174 130.95277344 23.38740723 130.60085937 23.85864258 130.23828125 C25.99968545 128.59227564 28.14225661 126.94827509 30.28515625 125.3046875 C31.05529053 124.71324951 31.8254248 124.12181152 32.61889648 123.51245117 C37.88573431 119.48079323 43.21424469 115.57464024 48.6640625 111.79296875 C49.26089844 111.30183594 49.85773438 110.81070313 50.47265625 110.3046875 C50.47265625 109.6446875 50.47265625 108.9846875 50.47265625 108.3046875 C51.06143555 108.18681885 51.65021484 108.0689502 52.25683594 107.94750977 C54.57289002 107.2756091 55.98947986 106.43589986 57.92578125 105.01953125 C58.85390625 104.34760742 58.85390625 104.34760742 59.80078125 103.66210938 C60.435 103.19353516 61.06921875 102.72496094 61.72265625 102.2421875 C62.6971875 101.53352539 62.6971875 101.53352539 63.69140625 100.81054688 C65.28919287 99.64745221 66.88147428 98.47680149 68.47265625 97.3046875 C66.44098695 93.63353823 64.25024602 90.88745254 61.22265625 87.9921875 C57.82364426 84.66943539 54.64322386 81.27341001 51.55078125 77.66796875 C48.75420583 74.48765272 45.86288441 71.3997895 42.97265625 68.3046875 C38.95973741 64.00278873 34.98929906 59.68040244 31.14453125 55.2265625 C29.11507552 52.89363676 27.04500925 50.59957505 24.97265625 48.3046875 C22.28282194 45.32406029 19.60955261 42.33223517 16.97265625 39.3046875 C8.07040059 28.97336177 8.07040059 28.97336177 -1.52734375 19.3046875 C-2.18734375 19.3046875 -2.84734375 19.3046875 -3.52734375 19.3046875 Z M281.15429688 22.6015625 C277.78059791 26.01836331 275.04035024 29.92868085 272.22265625 33.8046875 C270.89388914 35.60595579 269.5644614 37.40673693 268.234375 39.20703125 C267.59161621 40.08085449 266.94885742 40.95467773 266.28662109 41.85498047 C263.91315188 45.06028197 261.48324192 48.21874365 259.03515625 51.3671875 C256.18296164 55.05633757 253.38600196 58.77130414 250.66015625 62.5546875 C247.21803973 67.32497423 243.67313819 72.00918515 240.09765625 76.6796875 C239.544729 77.40397949 238.99180176 78.12827148 238.42211914 78.87451172 C235.77321938 82.33634032 233.10542312 85.77856852 230.37890625 89.1796875 C229.90759277 89.77346191 229.4362793 90.36723633 228.95068359 90.97900391 C227.67650061 92.58058432 226.39133433 94.173409 225.10546875 95.765625 C224.56664062 96.60351562 224.0278125 97.44140625 223.47265625 98.3046875 C224.60304751 101.69586128 225.27659292 102.16108418 228.09375 104.16796875 C228.85623047 104.71880127 229.61871094 105.26963379 230.40429688 105.8371582 C231.23123047 106.42456787 232.05816406 107.01197754 232.91015625 107.6171875 C240.67608668 113.21989992 248.28149784 118.98135327 255.77124023 124.94848633 C256.83000366 125.78416138 256.83000366 125.78416138 257.91015625 126.63671875 C258.52761719 127.12889893 259.14507812 127.6210791 259.78125 128.12817383 C261.57955544 129.49705484 261.57955544 129.49705484 264.47265625 130.3046875 C267.42132428 122.04297901 269.48024897 113.59908669 271.5625 105.08984375 C271.9519313 103.50908539 272.34163073 101.92839307 272.73158264 100.34776306 C273.54657729 97.04091415 274.35909023 93.73346901 275.16967773 90.42553711 C276.19549437 86.2396558 277.2262781 82.05501868 278.25884151 77.87079716 C279.06443543 74.60470798 279.86788528 71.33809425 280.67068672 68.07131767 C281.04925016 66.53143431 281.42830203 64.99167092 281.8079052 63.45204353 C282.86974101 59.14158514 283.9183531 54.82828659 284.94675827 50.50972366 C285.30981522 48.98746321 285.67572934 47.46588235 286.04396439 45.94486618 C286.61882591 43.55864662 287.17927566 41.1694288 287.73657227 38.77905273 C287.99835093 37.70518735 287.99835093 37.70518735 288.26541805 36.60962772 C289.49136799 31.25225121 291.02386152 24.40709804 288.47265625 19.3046875 C284.93443924 19.3046875 283.75115083 20.32171044 281.15429688 22.6015625 Z " fill="#EE8226" transform="translate(82.52734375,12.6953125)"/>
<path d="M0 0 C8.63493999 3.26989312 16.16108979 8.34547715 23.859375 13.3671875 C27.63844082 15.82068814 31.50190097 18.03443488 35.47729492 20.15332031 C37.49346456 21.31669435 39.27392431 22.61146358 41.09765625 24.0546875 C44.63676202 26.79575962 48.3700808 29.10055017 52.22265625 31.3671875 C58.23489469 34.91442336 64.12702197 38.61413188 69.97265625 42.4296875 C70.79741455 42.96770996 71.62217285 43.50573242 72.47192383 44.06005859 C77.21800552 47.16272769 81.95373974 50.28091761 86.6875 53.40234375 C88.24210937 54.42400635 88.24210937 54.42400635 89.828125 55.46630859 C91.84506772 56.79208416 93.85949885 58.12169057 95.87109375 59.45556641 C96.79019531 60.05933105 97.70929688 60.6630957 98.65625 61.28515625 C99.46634521 61.82035889 100.27644043 62.35556152 101.11108398 62.90698242 C103.50103488 64.3214835 105.87067427 65.34472457 108.47265625 66.3046875 C107.77372305 70.34451074 106.07796241 71.67850566 102.76171875 74.06005859 C101.78332031 74.7380249 101.78332031 74.7380249 100.78515625 75.4296875 C99.78162109 76.14439209 99.78162109 76.14439209 98.7578125 76.87353516 C97.3621105 77.86620197 95.96312302 78.85426411 94.56103516 79.83789062 C92.56867316 81.23724893 90.58707017 82.65032431 88.609375 84.0703125 C86.30668568 85.72344763 84.00161432 87.37301222 81.69140625 89.015625 C79.99134404 90.22464983 78.29802745 91.44846011 76.6875 92.77441406 C74.87890625 94.21875 74.87890625 94.21875 71.47265625 96.3046875 C66.87834129 95.65624064 64.2394253 92.41147859 61.09765625 89.1796875 C60.61216309 88.68251221 60.12666992 88.18533691 59.62646484 87.6730957 C56.46274095 84.40876055 53.43089082 81.05406857 50.48046875 77.59765625 C47.71228007 74.43632015 44.84060383 71.37541518 41.97265625 68.3046875 C37.95969793 64.00282784 33.98929723 59.68040032 30.14453125 55.2265625 C28.11507552 52.89363676 26.04500925 50.59957505 23.97265625 48.3046875 C21.28282194 45.32406029 18.60955261 42.33223517 15.97265625 39.3046875 C7.58073252 29.46143567 7.58073252 29.46143567 -1.52734375 20.3046875 C-2.18734375 20.3046875 -2.84734375 20.3046875 -3.52734375 20.3046875 C-3.85294747 28.80596933 -3.02526238 36.47508758 -1.14453125 44.7578125 C-0.88155243 45.94820129 -0.61857361 47.13859009 -0.34762573 48.36505127 C3.17616481 63.9267693 7.44766228 79.29947 11.69232178 94.67663574 C12.8045214 98.71254166 13.90766605 102.7509219 15.01171875 106.7890625 C17.15682679 114.62996468 19.31144045 122.46820988 21.47265625 130.3046875 C22.61734375 129.5621875 22.61734375 129.5621875 23.78515625 128.8046875 C26.47265625 127.3046875 26.47265625 127.3046875 29.47265625 127.3046875 C25.47781442 132.22333651 21.47560979 136.34662593 16.26953125 139.98046875 C14.48331671 141.29683121 13.01351503 142.71303118 11.47265625 144.3046875 C6.90122768 148.3046875 6.90122768 148.3046875 3.47265625 148.3046875 C3.21226563 148.86542969 2.951875 149.42617187 2.68359375 150.00390625 C1.34390505 152.54931479 -0.21994941 154.78461019 -1.90234375 157.1171875 C-3.95950201 160.0159105 -5.9342952 162.8799848 -7.65234375 165.9921875 C-9.73523494 169.67196193 -11.93586301 172.96304129 -14.52734375 176.3046875 C-15.18734375 176.3046875 -15.84734375 176.3046875 -16.52734375 176.3046875 C-14.85459175 171.35490672 -12.06558767 167.26069819 -9.21484375 162.9296875 C-8.50424805 161.83527344 -8.50424805 161.83527344 -7.77929688 160.71875 C-7.30814453 159.996875 -6.83699219 159.275 -6.3515625 158.53125 C-5.8879834 157.8084082 -5.4244043 157.08556641 -4.94677734 156.34082031 C-3.52734375 154.3046875 -3.52734375 154.3046875 -1.98681641 152.69824219 C-0.32542197 150.90107425 0.5691668 149.59457109 1.47265625 147.3046875 C1.37474401 144.26649978 1.37474401 144.26649978 0.76196289 140.9375 C0.56000809 139.68762299 0.35805328 138.43774597 0.14997864 137.1499939 C-0.89730503 131.20433694 -1.98598887 125.2702959 -3.13671875 119.34375 C-3.51601657 117.36243859 -3.89529901 115.38112414 -4.27388859 113.39967728 C-4.67034573 111.3254152 -5.06788305 109.25136181 -5.46542358 107.17730713 C-9.3317014 86.97629614 -13.15484662 66.77137785 -16.21484375 46.4296875 C-16.33299438 45.66199036 -16.45114502 44.89429321 -16.57287598 44.10333252 C-17.81581604 35.96081132 -18.74903375 27.82955839 -19.296875 19.609375 C-19.35260178 18.86696564 -19.40832855 18.12455627 -19.46574402 17.35964966 C-19.80766715 11.25289997 -19.12697304 7.10427045 -15.02734375 2.4921875 C-10.34652928 -1.60352516 -5.8345659 -1.60518196 0 0 Z " fill="#92462D" transform="translate(82.52734375,12.6953125)"/>
<path d="M0 0 C3.1151018 1.78005817 4.60690257 2.74923546 5.6875 6.1875 C5.790625 6.785625 5.89375 7.38375 6 8 C6.99 8.495 6.99 8.495 8 9 C7.5683941 20.44774311 6.0703318 31.38155362 3.8671875 42.61328125 C3.54825646 44.27760784 3.23017236 45.94209692 2.91287231 47.60673523 C2.07940903 51.96620902 1.23393743 56.32326805 0.38592529 60.67993164 C-0.45110933 64.99279476 -1.27556275 69.30805956 -2.1015625 73.62304688 C-3.88328842 82.91522013 -5.69042774 92.20231029 -7.50849915 101.48743439 C-8.00569794 104.02912802 -8.50122241 106.57114377 -8.99645996 109.11322021 C-9.79626187 113.21559284 -10.60164018 117.31683368 -11.41137314 121.41725731 C-11.71195911 122.94270048 -12.01097818 124.46845336 -12.30832291 125.99453163 C-12.71762899 128.09260738 -13.13313042 130.18936296 -13.55029297 132.28588867 C-13.78295868 133.46704758 -14.01562439 134.64820648 -14.25534058 135.86515808 C-14.93721801 138.7357025 -15.82033755 141.30135242 -17 144 C-20.80133442 142.32076975 -23.97082702 139.88537166 -27.25 137.375 C-28.08144531 136.74464844 -28.08144531 136.74464844 -28.9296875 136.1015625 C-30.28866663 135.07061281 -31.64463835 134.03570089 -33 133 C-32.35220622 127.90191122 -31.35246378 122.97709368 -30.09814453 117.99194336 C-29.90774597 117.22337006 -29.71734741 116.45479675 -29.5211792 115.66293335 C-28.89486309 113.1377786 -28.26377521 110.61384104 -27.6328125 108.08984375 C-27.1926583 106.31743791 -26.75287574 104.54493973 -26.31344604 102.77235413 C-25.15684026 98.10980264 -23.99649523 93.4481911 -22.83496094 88.78686523 C-20.98270085 81.3529837 -19.13406498 73.9182075 -17.28933334 66.4824543 C-16.64939253 63.90658126 -16.00659975 61.33143225 -15.36355591 58.7563324 C-10.22255534 39.63018165 -10.22255534 39.63018165 -9 20 C-15.17808676 22.99141243 -18.51869545 26.58531431 -22.5625 32.0625 C-23.45171143 33.2366748 -23.45171143 33.2366748 -24.35888672 34.43457031 C-26.25364321 36.94595764 -28.12817872 39.47148342 -30 42 C-31.2929223 43.73310757 -32.58589093 45.46618058 -33.87890625 47.19921875 C-40.22076924 55.65778283 -40.22076924 55.65778283 -46.23046875 64.3515625 C-47.62953246 66.44552541 -49.00105963 68.27143491 -50.6875 70.125 C-53.36470386 73.18466156 -55.81886699 76.36633847 -58.25 79.625 C-59.01183594 80.64464844 -59.77367187 81.66429688 -60.55859375 82.71484375 C-61.81757477 84.40459627 -63.07148915 86.09757196 -64.31689453 87.79736328 C-65.63968426 89.6009926 -66.9751869 91.39462417 -68.3125 93.1875 C-68.92496582 94.03465576 -68.92496582 94.03465576 -69.54980469 94.89892578 C-71.15295443 97.03228733 -72.5941535 98.76311816 -74.9140625 100.1171875 C-78.28100326 99.92803352 -80.48069285 97.9229628 -83.0625 95.9375 C-83.95594116 95.27488159 -83.95594116 95.27488159 -84.86743164 94.59887695 C-86.18923504 93.61730652 -87.50697571 92.63024898 -88.82128906 91.63867188 C-92.00519338 89.24396481 -95.21864913 86.88995831 -98.42944336 84.53149414 C-100.84057918 82.75875893 -103.24676517 80.97948394 -105.65234375 79.19921875 C-109.4073162 76.42625232 -113.19341036 73.70161422 -117 71 C-116.66422902 68.15623332 -116.20910483 67.17767941 -113.99047852 65.29248047 C-113.12865967 64.73963379 -112.26684082 64.18678711 -111.37890625 63.6171875 C-110.44369141 63.00746094 -109.50847656 62.39773437 -108.54492188 61.76953125 C-107.56072266 61.14433594 -106.57652344 60.51914063 -105.5625 59.875 C-103.62514345 58.6241886 -101.68889102 57.37166489 -99.75390625 56.1171875 C-98.45948608 55.29130127 -98.45948608 55.29130127 -97.13891602 54.44873047 C-94.91415001 53.04009289 -94.91415001 53.04009289 -93 51 C-91.44772173 49.96660177 -89.87523425 48.96343412 -88.29296875 47.9765625 C-83.78698212 45.13910606 -79.31338981 42.25976092 -74.86328125 39.3359375 C-74.2480661 38.93207825 -73.63285095 38.52821899 -72.99899292 38.11212158 C-70.46180165 36.44587084 -67.92557061 34.77816183 -65.3894043 33.11035156 C-63.50617627 31.87231462 -61.62239898 30.63511997 -59.73828125 29.3984375 C-59.14226105 29.00694519 -58.54624084 28.61545288 -57.93215942 28.21209717 C-54.72418369 26.11039182 -51.49638407 24.049423 -48.23046875 22.0390625 C-45.05157543 20.19859355 -45.05157543 20.19859355 -43 18 C-40.93636645 16.75832219 -38.84884328 15.55618759 -36.75 14.375 C-35.48555596 13.661673 -34.22123674 12.94812469 -32.95703125 12.234375 C-32.30557129 11.86763672 -31.65411133 11.50089844 -30.98291016 11.12304688 C-29.02727922 10.01544994 -27.08072788 8.89347735 -25.13671875 7.765625 C-24.51635742 7.40678223 -23.89599609 7.04793945 -23.25683594 6.67822266 C-21.52338399 5.67471867 -19.79096167 4.66943671 -18.05859375 3.6640625 C-11.92552985 0.32729977 -6.97706765 -0.93944096 0 0 Z " fill="#774A2C" transform="translate(380,12)"/>
<path d="M0 0 C0.66 0.66 1.32 1.32 2 2 C0.30947142 5.50628149 -1.68409028 8.72638483 -3.78125 12 C-4.97255689 13.95496516 -6.00618782 15.93875993 -7 18 C-0.25346474 18.48189538 5.55439115 17.2381563 12.02734375 15.50195312 C17.33204171 14.10042781 22.50834241 13.264022 28 13 C28 12.34 28 11.68 28 11 C34.98795036 9.78213386 41.94110263 8.70588974 49 8 C49.495 8.99 49.495 8.99 50 10 C32.84 13.96 15.68 17.92 -2 22 C3.28 23.65 8.56 25.3 14 27 C17.02773877 28.17367402 19.93852605 29.33740951 22.875 30.6875 C23.60549561 31.01709717 24.33599121 31.34669434 25.08862305 31.6862793 C32.32689641 35.02340032 39.28453869 38.85741865 46.20703125 42.80078125 C46.86977051 43.1757373 47.53250977 43.55069336 48.21533203 43.93701172 C50 45 50 45 52.60546875 46.90234375 C56.08684814 48.4982126 57.96292555 47.52268567 61.5 46.25 C82.21162774 38.99125196 102.26297392 43.60798385 121.57421875 52.734375 C128.49488294 56.16839564 134.7781456 60.44415418 141 65 C141.84836426 65.61512451 141.84836426 65.61512451 142.71386719 66.24267578 C153.77980455 74.32241382 163.71381567 83.4966381 173.2578125 93.3203125 C174.90753414 95.07828806 174.90753414 95.07828806 177 96 C177 96.99 177 97.98 177 99 C173.4289653 97.68302266 170.41946773 96.09952003 167.25 94 C142.45674092 78.03314115 111.77143339 58.87783218 81 61 C79.515 61.495 79.515 61.495 78 62 C79.07894531 62.65484375 80.15789062 63.3096875 81.26953125 63.984375 C95.61705449 72.7110355 109.83156456 81.63801168 123.9375 90.75 C124.57437744 91.16121094 125.21125488 91.57242188 125.86743164 91.99609375 C130.89508578 95.25574629 135.8789673 98.57971521 140.86157227 101.90771484 C143.90239317 103.93492878 146.9500018 105.9514707 150 107.96484375 C169.54364744 120.89312735 169.54364744 120.89312735 177.92578125 127.49609375 C180.02159642 129.17434017 180.02159642 129.17434017 183 130 C183.33 130.99 183.66 131.98 184 133 C179.6277944 132.43128088 176.12005753 131.34739862 172.1328125 129.48046875 C171.01165039 128.95864014 169.89048828 128.43681152 168.73535156 127.89916992 C167.54393555 127.33431885 166.35251953 126.76946777 165.125 126.1875 C163.87479962 125.60040076 162.62447234 125.01357168 161.37402344 124.42700195 C149.47861853 118.82672539 137.72625131 112.94499764 126 107 C123.02274637 105.49617399 120.04364656 103.99609326 117.0625 102.5 C116.42094971 102.17765381 115.77939941 101.85530762 115.1184082 101.52319336 C111.16095327 99.54631443 107.17672815 97.67788312 103.08984375 95.984375 C100.67907458 94.84883513 98.4043637 93.51632778 96.09936523 92.18212891 C90.81291587 89.20538884 85.37408373 86.49579549 79.97436523 83.73168945 C75.37670913 81.35988561 70.85241272 78.98080449 66.5 76.1796875 C57.99669238 70.74899498 52.6707176 69.29664024 42.640625 70.65625 C37.50165368 71.14147476 33.73892649 69.7681222 29 68 C27.00792259 67.62219222 25.01026035 67.26450794 23 67 C22.67 65.68 22.34 64.36 22 63 C22.67546875 62.80664062 23.3509375 62.61328125 24.046875 62.4140625 C24.93890625 62.15367187 25.8309375 61.89328125 26.75 61.625 C27.63171875 61.36976563 28.5134375 61.11453125 29.421875 60.8515625 C31.76080572 60.0790066 33.83442562 59.16374324 36 58 C36 57.34 36 56.68 36 56 C34.32093309 54.69018467 34.32093309 54.69018467 32.1328125 53.43359375 C31.32972656 52.94826172 30.52664062 52.46292969 29.69921875 51.96289062 C28.84972656 51.45951172 28.00023437 50.95613281 27.125 50.4375 C26.28324219 49.93025391 25.44148438 49.42300781 24.57421875 48.90039062 C20.34897862 46.33860049 20.34897862 46.33860049 16 44 C16 43.34 16 42.68 16 42 C15.29190186 41.73952881 14.58380371 41.47905762 13.85424805 41.21069336 C8.50945674 38.94358019 3.7221993 35.63793333 -1.1875 32.5625 C-2.29287109 31.88123047 -3.39824219 31.19996094 -4.53710938 30.49804688 C-5.59091797 29.83998047 -6.64472656 29.18191406 -7.73046875 28.50390625 C-8.69364014 27.90392822 -9.65681152 27.3039502 -10.64916992 26.68579102 C-13 25 -13 25 -15 22 C-14.36191406 21.41798828 -14.36191406 21.41798828 -13.7109375 20.82421875 C-11.67027551 18.64844443 -10.20308744 16.34386651 -8.625 13.8125 C-7.71427734 12.3584375 -7.71427734 12.3584375 -6.78515625 10.875 C-6.19605469 9.92625 -5.60695313 8.9775 -5 8 C-4.02095021 6.43742676 -3.04180022 4.8749163 -2.0625 3.3125 C-1.381875 2.219375 -0.70125 1.12625 0 0 Z M-8 19 C-7 21 -7 21 -7 21 Z " fill="#AB532D" transform="translate(41,226)"/>
<path d="M0 0 C-1.72052101 4.65208836 -4.13317329 8.60484829 -6.7578125 12.79296875 C-8.16349364 14.86838549 -8.16349364 14.86838549 -8 17 C-8.66 17 -9.32 17 -10 17 C-10.24363281 17.82113281 -10.48726562 18.64226562 -10.73828125 19.48828125 C-12.21870641 23.60872155 -14.11879069 27.33708995 -16.1875 31.1875 C-16.5911377 31.93999023 -16.99477539 32.69248047 -17.41064453 33.46777344 C-32.00006945 60.40653746 -52.2281596 79.47268192 -81.9140625 88.41845703 C-94.28108831 91.86628656 -106.77732824 93.10292694 -119.5625 93.5625 C-120.66013672 93.60568359 -121.75777344 93.64886719 -122.88867188 93.69335938 C-128.26283724 93.8974416 -133.62201116 94.05401137 -139 94 C-136.25351131 90.68055348 -132.57363025 89.11459117 -128.77734375 87.27734375 C-128.0760585 86.93119522 -127.37477325 86.58504669 -126.65223694 86.22840881 C-124.41677711 85.12566367 -122.1775244 84.03093972 -119.9375 82.9375 C-117.69427029 81.83979019 -115.45198123 80.74030832 -113.21205139 79.63587952 C-111.81956233 78.94952191 -110.42511446 78.26712117 -109.02854919 77.58909607 C-106.32586695 76.25882128 -104.14581531 75.14581531 -102 73 C-99.65736125 71.82129526 -97.3066345 70.6851942 -94.9375 69.5625 C-82.39157203 63.4390115 -70.74698186 55.93419305 -60.19921875 46.77734375 C-58 45 -58 45 -55.76953125 43.94140625 C-53.64034293 43.06937639 -53.64034293 43.06937639 -53 40 C-52.34 40 -51.68 40 -51 40 C-50.75636719 39.44570312 -50.51273437 38.89140625 -50.26171875 38.3203125 C-48.74023974 35.52229846 -46.87096276 33.3054741 -44.8125 30.875 C-39.66157364 24.66896453 -34.45840347 18.33448852 -31 11 C-30.01 11 -29.02 11 -28 11 C-33.50787297 34.35108643 -47.0786184 52.49076416 -67.30371094 65.03222656 C-67.88282227 65.39026367 -68.46193359 65.74830078 -69.05859375 66.1171875 C-71.98544818 67.84255906 -71.98544818 67.84255906 -74 70 C-75.25272843 70.69245054 -76.53174191 71.33804787 -77.82421875 71.953125 C-78.98667114 72.50722046 -78.98667114 72.50722046 -80.17260742 73.07250977 C-81.00252197 73.46108154 -81.83243652 73.84965332 -82.6875 74.25 C-83.53223877 74.64823975 -84.37697754 75.04647949 -85.24731445 75.45678711 C-92.71915261 78.94223978 -100.29667206 82.06375393 -108 85 C-85.32425538 78.65729684 -65.95757476 70.62624049 -48 55 C-47.32710938 54.4225 -46.65421875 53.845 -45.9609375 53.25 C-37.60931313 45.5305703 -32.02004647 35.29001604 -26.09326172 25.69506836 C-10.19559353 0 -10.19559353 0 0 0 Z " fill="#F07E2C" transform="translate(506,210)"/>
<path d="M0 0 C0.99 0.33 1.98 0.66 3 1 C-1.62 10.57 -6.24 20.14 -11 30 C-6.52809086 28.50936362 -2.74099293 25.92154362 1.28515625 23.49609375 C4 22 4 22 6 22 C6.33 21.34 6.66 20.68 7 20 C9.46064722 18.63198674 11.90972257 17.3568609 14.4375 16.125 C15.16380615 15.76929932 15.8901123 15.41359863 16.63842773 15.04711914 C18.75384616 14.02031511 20.87524191 13.00731197 23 12 C24.00289063 11.52175781 25.00578125 11.04351562 26.0390625 10.55078125 C31.20171088 8.27314226 34.49598395 7.56416972 40 9 C40 8.34 40 7.68 40 7 C41.47831221 6.80587819 42.95769316 6.61987869 44.4375 6.4375 C45.26121094 6.33308594 46.08492188 6.22867188 46.93359375 6.12109375 C47.95646484 6.06115234 47.95646484 6.06115234 49 6 C50 7 50 7 50.57421875 9.23046875 C50 12 50 12 48.51806641 13.31103516 C46.32744922 14.73844196 44.09532274 16.03772469 41.8125 17.3125 C40.27694016 18.20373207 38.74179462 19.09567829 37.20703125 19.98828125 C36.37913086 20.46273682 35.55123047 20.93719238 34.69824219 21.42602539 C31.72776178 23.15880563 28.80293678 24.95558604 25.87890625 26.765625 C18.35107141 31.41952596 10.74182313 35.9311977 3.125 40.4375 C0.41892874 42.03978758 -2.28674079 43.64275189 -4.9921875 45.24609375 C-5.65538498 45.63900101 -6.31858246 46.03190826 -7.00187683 46.4367218 C-12.30619147 49.58193673 -17.59433095 52.75361995 -22.87962341 55.93066406 C-27.37959074 58.63351839 -31.90048156 61.29751322 -36.4375 63.9375 C-40.81791904 66.48804005 -45.15834394 69.07785552 -49.421875 71.8203125 C-50.13802979 72.27929932 -50.85418457 72.73828613 -51.59204102 73.21118164 C-52.94990268 74.08683867 -54.30236212 74.97095342 -55.64819336 75.86499023 C-59.430907 78.30370815 -62.50449616 79.60638446 -67 80 C-62.86212097 74.25294579 -58.37784598 68.9077231 -53.74169922 63.56469727 C-50.1554591 59.40829455 -46.72903731 55.15770717 -43.375 50.8125 C-39.20805921 45.41729774 -34.79546098 40.3975457 -30.15234375 35.40234375 C-28.33469753 33.37357347 -26.73203263 31.36240708 -25.1875 29.125 C-23.01393368 26.01990525 -20.67646277 23.67646277 -18 21 C-15.97966234 18.74308965 -14.02027556 16.436228 -12.0625 14.125 C-11.05338542 12.94010417 -10.04427083 11.75520833 -9.03515625 10.5703125 C-8.54160645 9.98926758 -8.04805664 9.40822266 -7.53955078 8.80957031 C-5.03495152 5.8656931 -2.51747785 2.9328645 0 0 Z " fill="#EF722D" transform="translate(364,244)"/>
<path d="M0 0 C11.61478667 -1.12401161 18.34647599 5.33266944 26.9375 12.3125 C29.0059586 14.01634651 31.06815277 15.72737022 33.12695312 17.44287109 C35.63049486 19.52415227 38.15938584 21.5736793 40.6875 23.625 C45.22170541 27.33665841 49.69434074 31.11719043 54.16040039 34.91015625 C58.49585658 38.58708657 62.87658002 42.20472922 67.2890625 45.7890625 C69.20996539 47.35567782 71.1204265 48.93513633 73.0234375 50.5234375 C74.00570312 51.34070313 74.98796875 52.15796875 76 53 C76.886875 53.7425 77.77375 54.485 78.6875 55.25 C80.96173555 57.16519737 80.96173555 57.16519737 84 58 C84.639375 58.825 85.27875 59.65 85.9375 60.5 C88.04586025 63.05558818 88.7991535 63.65705216 92 64 C92 63.34 92 62.68 92 62 C92.99 61.67 93.98 61.34 95 61 C95.33 60.01 95.66 59.02 96 58 C97.65 57.67 99.3 57.34 101 57 C101.33 56.01 101.66 55.02 102 54 C102.99 54 103.98 54 105 54 C101.65996398 49.67760044 98.67248931 46.82522609 94 44 C97 43 97 43 99.8828125 44.328125 C100.95273438 44.96234375 102.02265625 45.5965625 103.125 46.25 C104.20007813 46.87390625 105.27515625 47.4978125 106.3828125 48.140625 C109 50 109 50 110 53 C103.66802661 58.12330611 97.07121967 62.84190151 90.38989258 67.49365234 C87.07954245 69.80245061 83.8002553 72.11860161 80.6328125 74.62109375 C79.20582031 75.73677734 79.20582031 75.73677734 77.75 76.875 C76.94046875 77.53242187 76.1309375 78.18984375 75.296875 78.8671875 C73 80 73 80 70.5390625 79.515625 C67.41663238 77.65177441 65.16035775 75.48300411 62.625 72.875 C62.13950684 72.37782471 61.65401367 71.88064941 61.15380859 71.3684082 C57.9900847 68.10407305 54.95823457 64.74938107 52.0078125 61.29296875 C49.23962382 58.13163265 46.36794758 55.07072768 43.5 52 C39.48704168 47.69814034 35.51664098 43.37571282 31.671875 38.921875 C29.64241927 36.58894926 27.572353 34.29488755 25.5 32 C22.81016569 29.01937279 20.13689636 26.02754767 17.5 23 C11.52110103 16.14715524 5.51628678 9.3492025 -1 3 C-0.67 2.01 -0.34 1.02 0 0 Z " fill="#44322B" transform="translate(81,29)"/>
<path d="M0 0 C0.99 0.33 1.98 0.66 3 1 C3 1.66 3 2.32 3 3 C5.57337415 4.71558276 8.14924078 6.30924522 10.8125 7.875 C12.47472847 8.87111181 14.13616198 9.86855117 15.796875 10.8671875 C17.08948242 11.6420752 17.08948242 11.6420752 18.40820312 12.43261719 C22.4927995 14.90276684 26.53004822 17.44586388 30.5625 20 C31.34866699 20.49773926 32.13483398 20.99547852 32.94482422 21.50830078 C38.29002523 24.90000387 43.61998994 28.31505662 48.9375 31.75 C49.57437744 32.16121094 50.21125488 32.57242188 50.86743164 32.99609375 C55.89508578 36.25574629 60.8789673 39.57971521 65.86157227 42.90771484 C68.90239317 44.93492878 71.9500018 46.9514707 75 48.96484375 C94.54364744 61.89312735 94.54364744 61.89312735 102.92578125 68.49609375 C105.02159642 70.17434017 105.02159642 70.17434017 108 71 C108.33 71.99 108.66 72.98 109 74 C104.6277944 73.43128088 101.12005753 72.34739862 97.1328125 70.48046875 C96.01165039 69.95864014 94.89048828 69.43681152 93.73535156 68.89916992 C92.54393555 68.33431885 91.35251953 67.76946777 90.125 67.1875 C88.87479962 66.60040076 87.62447234 66.01357168 86.37402344 65.42700195 C74.47861853 59.82672539 62.72625131 53.94499764 51 48 C48.02274637 46.49617399 45.04364656 44.99609326 42.0625 43.5 C41.42094971 43.17765381 40.77939941 42.85530762 40.1184082 42.52319336 C36.16095327 40.54631443 32.17672815 38.67788312 28.08984375 36.984375 C25.67907458 35.84883513 23.4043637 34.51632778 21.09936523 33.18212891 C16.81864291 30.7717024 12.42691405 28.56649727 8.0625 26.3125 C4.03784609 24.21558906 0.01776052 22.11008585 -4 20 C-5.29333252 19.32203369 -5.29333252 19.32203369 -6.61279297 18.63037109 C-8.87556537 17.43560896 -11.12695303 16.2221909 -13.375 15 C-14.04007568 14.65106689 -14.70515137 14.30213379 -15.39038086 13.94262695 C-19.7917388 11.51264296 -19.7917388 11.51264296 -20.9140625 8.75 C-20.94242187 8.1725 -20.97078125 7.595 -21 7 C-15.17100391 3.63711764 -10.10845168 2.28736462 -3.44140625 1.39453125 C-1.05877152 1.25385347 -1.05877152 1.25385347 0 0 Z " fill="#6C3C2B" transform="translate(116,285)"/>
<path d="M0 0 C2.88256285 2.11953151 3.90923659 4.18261774 4.4609375 7.7109375 C4.55682051 13.17626895 3.88091353 16.31238733 0.125 20.5625 C-7.37347011 26.56127609 -15.55508226 27.50042803 -24.875 26.5625 C-31.03810553 25.11896757 -35.94045385 22.6572363 -39.81640625 17.5625 C-41.66388883 14.0720532 -42.22285197 10.4830816 -41.875 6.5625 C-40.58133883 2.71058754 -38.45242567 1.36757209 -35 -0.625 C-34.13632813 -1.13417969 -33.27265625 -1.64335937 -32.3828125 -2.16796875 C-22.11104136 -7.36785289 -9.76004827 -4.88002414 0 0 Z " fill="#38332E" transform="translate(278.875,323.4375)"/>
<path d="M0 0 C0.66 0.66 1.32 1.32 2 2 C0.30947142 5.50628149 -1.68409028 8.72638483 -3.78125 12 C-4.97255689 13.95496516 -6.00618782 15.93875993 -7 18 C-0.25346474 18.48189538 5.55439115 17.2381563 12.02734375 15.50195312 C17.33204171 14.10042781 22.50834241 13.264022 28 13 C28 12.34 28 11.68 28 11 C34.98795036 9.78213386 41.94110263 8.70588974 49 8 C49.495 8.99 49.495 8.99 50 10 C32.84 13.96 15.68 17.92 -2 22 C3.28 23.65 8.56 25.3 14 27 C17.02773877 28.17367402 19.93852605 29.33740951 22.875 30.6875 C23.60549561 31.01709717 24.33599121 31.34669434 25.08862305 31.6862793 C33.65299369 35.63478191 41.84878398 40.26881298 50 45 C50.97324219 45.55042969 51.94648437 46.10085938 52.94921875 46.66796875 C55 48 55 48 56 50 C50.06 52.64 44.12 55.28 38 58 C36.96875 57.175 35.9375 56.35 34.875 55.5 C28.9663711 51.04186483 22.46306674 47.57647233 16 44 C16 43.34 16 42.68 16 42 C15.29190186 41.73952881 14.58380371 41.47905762 13.85424805 41.21069336 C8.50945674 38.94358019 3.7221993 35.63793333 -1.1875 32.5625 C-2.29287109 31.88123047 -3.39824219 31.19996094 -4.53710938 30.49804688 C-5.59091797 29.83998047 -6.64472656 29.18191406 -7.73046875 28.50390625 C-8.69364014 27.90392822 -9.65681152 27.3039502 -10.64916992 26.68579102 C-13 25 -13 25 -15 22 C-14.36191406 21.41798828 -14.36191406 21.41798828 -13.7109375 20.82421875 C-11.67027551 18.64844443 -10.20308744 16.34386651 -8.625 13.8125 C-7.71427734 12.3584375 -7.71427734 12.3584375 -6.78515625 10.875 C-6.19605469 9.92625 -5.60695313 8.9775 -5 8 C-4.02095021 6.43742676 -3.04180022 4.8749163 -2.0625 3.3125 C-1.381875 2.219375 -0.70125 1.12625 0 0 Z M-8 19 C-7 21 -7 21 -7 21 Z " fill="#DD4033" transform="translate(41,226)"/>
<path d="M0 0 C10.59125414 4.93885431 17.38257809 13.39226382 21.4609375 24.20703125 C23.45524597 29.85745695 25.10154584 35.43601292 25.95703125 41.37890625 C22.95703125 40.37890625 22.95703125 40.37890625 21.33203125 37.69140625 C16.17215481 29.73263005 7.84703486 27.60406173 -0.79467773 25.27099609 C-10.54267677 22.54886439 -16.59860741 17.72799388 -22.35546875 9.50390625 C-23.44813389 6.12657762 -23.16081933 2.91442372 -23.04296875 -0.62109375 C-15.71788051 -4.78307571 -7.53716466 -2.77685014 0 0 Z " fill="#3C332C" transform="translate(186.04296875,219.62109375)"/>
<path d="M0 0 C1.13566406 -0.01417969 2.27132812 -0.02835938 3.44140625 -0.04296875 C6.4375 0.1875 6.4375 0.1875 9.4375 2.1875 C8.56542253 9.52497941 6.8769082 15.00289096 1.4375 20.1875 C-6.80608974 26.1875 -6.80608974 26.1875 -11.5625 26.1875 C-11.8925 26.8475 -12.2225 27.5075 -12.5625 28.1875 C-14.34765625 28.609375 -14.34765625 28.609375 -16.625 28.9375 C-22.65798216 30.17675907 -27.35036174 33.07804369 -30.94921875 38.13671875 C-31.89793222 39.77782661 -32.7422158 41.47857459 -33.5625 43.1875 C-34.2225 43.1875 -34.8825 43.1875 -35.5625 43.1875 C-36.43248554 32.09518443 -32.32372079 20.93380327 -25.5625 12.1875 C-18.03767623 4.27089905 -10.98411748 0.06248076 0 0 Z " fill="#3D352E" transform="translate(302.5625,216.8125)"/>
<path d="M0 0 C-1.75 3.875 -1.75 3.875 -4 5 C-1.525 5.495 -1.525 5.495 1 6 C1 6.66 1 7.32 1 8 C-3.29 9.65 -7.58 11.3 -12 13 C-11.34 13.66 -10.68 14.32 -10 15 C-11.26839526 15.50615298 -12.53983102 16.00469099 -13.8125 16.5 C-14.52019531 16.7784375 -15.22789062 17.056875 -15.95703125 17.34375 C-18 18 -18 18 -21 18 C-21.33 18.33 -21.66 18.66 -22 19 C-20.02 19 -18.04 19 -16 19 C-16.33 19.66 -16.66 20.32 -17 21 C-19.85403975 21.16912828 -22.70820002 21.33537163 -25.5625 21.5 C-26.76229492 21.57154297 -26.76229492 21.57154297 -27.98632812 21.64453125 C-32.66718977 21.91200906 -37.31158379 22.05034541 -42 22 C-39.25351131 18.68055348 -35.57363025 17.11459117 -31.77734375 15.27734375 C-31.0760585 14.93119522 -30.37477325 14.58504669 -29.65223694 14.22840881 C-27.41677711 13.12566367 -25.1775244 12.03093972 -22.9375 10.9375 C-20.69427029 9.83979019 -18.45198123 8.74030832 -16.21205139 7.63587952 C-14.81956233 6.94952191 -13.42511446 6.26712117 -12.02854919 5.58909607 C-9.32586695 4.25882128 -7.14581531 3.14581531 -5 1 C-2 0 -2 0 0 0 Z " fill="#EC6D2F" transform="translate(409,282)"/>
<path d="M0 0 C-3.53539794 2.91150419 -7.16779716 5.49432891 -11 8 C-16.28815311 11.48610499 -21.53404535 15.0317868 -26.75 18.625 C-27.81734375 19.35976562 -28.8846875 20.09453125 -29.984375 20.8515625 C-31.96034232 22.25931124 -33.89143185 23.7327872 -35.765625 25.2734375 C-38 27 -38 27 -40 27 C-40.41870553 29.33071879 -40.41870553 29.33071879 -40 32 C-37.79511741 34.46416134 -37.79511741 34.46416134 -35 36 C-33.515 35.505 -33.515 35.505 -32 35 C-32 35.99 -32 36.98 -32 38 C-31.34 38 -30.68 38 -30 38 C-30 38.66 -30 39.32 -30 40 C-29.34 40.33 -28.68 40.66 -28 41 C-26.96854629 42.30915279 -25.96457834 43.64082143 -25 45 C-29.53448501 43.50548809 -32.94125958 40.94362819 -36.625 38 C-41.21947196 34.37506013 -41.21947196 34.37506013 -46 31 C-45.66422902 28.15623332 -45.20910483 27.17767941 -42.99047852 25.29248047 C-42.12865967 24.73963379 -41.26684082 24.18678711 -40.37890625 23.6171875 C-39.44369141 23.00746094 -38.50847656 22.39773437 -37.54492188 21.76953125 C-36.56072266 21.14433594 -35.57652344 20.51914063 -34.5625 19.875 C-32.62514345 18.6241886 -30.68889102 17.37166489 -28.75390625 16.1171875 C-27.45948608 15.29130127 -27.45948608 15.29130127 -26.13891602 14.44873047 C-23.91415001 13.04009289 -23.91415001 13.04009289 -22 11 C-19.33356267 9.21788616 -16.61685001 7.52590217 -13.8984375 5.82421875 C-12.11824832 4.70380319 -10.34952648 3.56458531 -8.6015625 2.39453125 C-7.90804687 1.93433594 -7.21453125 1.47414062 -6.5 1 C-5.58734375 0.38125 -5.58734375 0.38125 -4.65625 -0.25 C-3 -1 -3 -1 0 0 Z " fill="#433123" transform="translate(309,52)"/>
<path d="M0 0 C1.22589844 0.01353516 1.22589844 0.01353516 2.4765625 0.02734375 C3.10304688 0.03894531 3.72953125 0.05054687 4.375 0.0625 C4.87 1.5475 4.87 1.5475 5.375 3.0625 C-2.05357143 7.34821429 -2.05357143 7.34821429 -5.625 9.0625 C-4.965 7.4125 -4.305 5.7625 -3.625 4.0625 C-7.01832111 4.0625 -9.66160273 6.14098957 -12.0625 8.4375 C-12.578125 8.97375 -13.09375 9.51 -13.625 10.0625 C-16.625 12.5625 -16.625 12.5625 -19.625 15.0625 C-20.62631557 16.0611827 -21.62628887 17.06121279 -22.625 18.0625 C-23.69211556 19.00460062 -24.76944646 19.93522705 -25.85546875 20.85546875 C-26.4695459 21.37802246 -27.08362305 21.90057617 -27.71630859 22.43896484 C-28.66111084 23.24261475 -28.66111084 23.24261475 -29.625 24.0625 C-38.0442878 31.30140774 -46.41484229 38.58642698 -54.625 46.0625 C-55.285 45.7325 -55.945 45.4025 -56.625 45.0625 C-53.96062335 42.5392373 -51.29307299 40.01935345 -48.625 37.5 C-47.88121094 36.79552734 -47.13742187 36.09105469 -46.37109375 35.36523438 C-41.54958178 30.81624264 -36.63951512 26.39709165 -31.625 22.0625 C-30.38758191 20.98097074 -29.15059586 19.89894693 -27.9140625 18.81640625 C-6.23672272 -0.08909604 -6.23672272 -0.08909604 0 0 Z " fill="#493324" transform="translate(365.625,28.9375)"/>
<path d="M0 0 C8.9100346 -0.62283737 8.9100346 -0.62283737 13.0625 1.75 C14.99739698 3.99697713 15.5093009 5.15394523 16 8 C16.66 8.33 17.32 8.66 18 9 C17.61102272 20.19982975 16.19160796 30.91659548 14.04370117 41.90527344 C13.55396075 44.41882704 13.08376335 46.93553997 12.61523438 49.453125 C12.30842022 51.06011171 12.00052004 52.66689155 11.69140625 54.2734375 C11.55174942 55.02225189 11.41209259 55.77106628 11.26820374 56.54257202 C10.23064827 61.76935173 10.23064827 61.76935173 8 64 C6.84239416 61.1059854 7.04152172 59.85476233 7.91796875 56.7890625 C8.96343856 53.12803104 9.50598624 49.71427284 9.9375 45.9375 C10.53962211 40.92002335 11.39364782 36.04439243 12.5625 31.125 C14.37744266 23.13191922 14.71339245 15.16337371 15 7 C14.34 7 13.68 7 13 7 C12.1646875 6.01 12.1646875 6.01 11.3125 5 C8.17642068 2.28771518 6.03139577 2.92534452 2 3 C1.34 2.01 0.68 1.02 0 0 Z " fill="#DE7627" transform="translate(370,12)"/>
<path d="M0 0 C0.66 0.33 1.32 0.66 2 1 C-1.99484183 5.91864901 -5.99704646 10.04193843 -11.203125 13.67578125 C-12.98933954 14.99214371 -14.45914122 16.40834368 -16 18 C-20.57142857 22 -20.57142857 22 -24 22 C-24.26039062 22.56074219 -24.52078125 23.12148437 -24.7890625 23.69921875 C-26.1287512 26.24462729 -27.69260566 28.47992269 -29.375 30.8125 C-31.43215826 33.711223 -33.40695145 36.5752973 -35.125 39.6875 C-37.20789119 43.36727443 -39.40851926 46.65835379 -42 50 C-42.66 50 -43.32 50 -44 50 C-42.33779023 45.09068278 -39.5850373 41.04147932 -36.75 36.75 C-36.25491943 35.99654297 -35.75983887 35.24308594 -35.24975586 34.46679688 C-34.27254033 32.98021075 -33.29398495 31.49450435 -32.31396484 30.00976562 C-31.2144965 28.32808161 -30.14457082 26.62713199 -29.08203125 24.921875 C-28.58058594 24.12265625 -28.07914063 23.3234375 -27.5625 22.5 C-27.15128906 21.8296875 -26.74007812 21.159375 -26.31640625 20.46875 C-25 19 -25 19 -23.12255859 18.55371094 C-20.80707131 17.94967078 -19.58502215 17.15052325 -17.72265625 15.671875 C-17.12646484 15.20136719 -16.53027344 14.73085937 -15.91601562 14.24609375 C-15.30435547 13.75238281 -14.69269531 13.25867188 -14.0625 12.75 C-13.45470703 12.27175781 -12.84691406 11.79351562 -12.22070312 11.30078125 C-8.57892009 8.40149767 -5.23568973 5.35724516 -2 2 C-1.34 1.34 -0.68 0.68 0 0 Z " fill="#CD4E3A" transform="translate(110,139)"/>
<path d="M0 0 C-1.37287342 3.69876091 -3.06355453 6.9514476 -5.125 10.3125 C-5.66382813 11.19550781 -6.20265625 12.07851562 -6.7578125 12.98828125 C-7.16773438 13.65214844 -7.57765625 14.31601563 -8 15 C-8.99 14.67 -9.98 14.34 -11 14 C-10.01 12.35 -9.02 10.7 -8 9 C-11.23459615 10.66350659 -13.44696109 12.36682156 -15.6875 15.1875 C-16.450625 16.115625 -17.21375 17.04375 -18 18 C-18.66 18 -19.32 18 -20 18 C-20.11601562 18.56332031 -20.23203125 19.12664062 -20.3515625 19.70703125 C-21.07404417 22.26183089 -22.10431981 24.35791966 -23.375 26.6875 C-23.79523438 27.47511719 -24.21546875 28.26273438 -24.6484375 29.07421875 C-26 31 -26 31 -29 32 C-25.06018048 21.31444071 -13.19845853 0 0 0 Z " fill="#EE8A26" transform="translate(506,210)"/>
<path d="M0 0 C1.32 0 2.64 0 4 0 C4 0.66 4 1.32 4 2 C5.2375 2.144375 6.475 2.28875 7.75 2.4375 C10.56504499 2.78688502 13.2701497 3.20379366 16 4 C16.33 2.68 16.66 1.36 17 0 C19.0625 2.3125 19.0625 2.3125 21 5 C20 8 20 8 17.71484375 9.38671875 C16.79832031 9.81597656 15.88179688 10.24523437 14.9375 10.6875 C13.55884766 11.34298828 13.55884766 11.34298828 12.15234375 12.01171875 C11.44207031 12.33785156 10.73179687 12.66398438 10 13 C9.67 11.68 9.34 10.36 9 9 C8.071875 9.185625 7.14375 9.37125 6.1875 9.5625 C3 10 3 10 0 9 C0 9.66 0 10.32 0 11 C-1.65 10.67 -3.3 10.34 -5 10 C-2.14415227 8.09610151 -0.0688238 7.30537823 3.1875 6.375 C4.08855469 6.11460937 4.98960937 5.85421875 5.91796875 5.5859375 C6.60503906 5.39257812 7.29210937 5.19921875 8 5 C5.03 4.01 2.06 3.02 -1 2 C-0.67 1.34 -0.34 0.68 0 0 Z " fill="#F59C24" transform="translate(404,242)"/>
<path d="M0 0 C0.66 0 1.32 0 2 0 C1.61545052 5.51187594 -0.13017068 7.23490965 -4 11 C-5.59558863 12.97370291 -7.15661935 14.97569501 -8.6875 17 C-9.1117627 17.55526367 -9.53602539 18.11052734 -9.97314453 18.68261719 C-12.25318619 21.66956401 -14.50252626 24.67714933 -16.73046875 27.703125 C-17.17366455 28.29738281 -17.61686035 28.89164063 -18.07348633 29.50390625 C-18.92463212 30.64579233 -19.76732112 31.79404364 -20.6003418 32.94921875 C-22.24073795 35.13959996 -23.5754657 36.79096125 -26.0546875 38.01171875 C-28.65677931 37.9960435 -29.72404232 37.15988971 -31.75 35.5625 C-32.36359375 35.08941406 -32.9771875 34.61632812 -33.609375 34.12890625 C-34.06828125 33.75636719 -34.5271875 33.38382813 -35 33 C-34.01 32.505 -34.01 32.505 -33 32 C-30.875 32.9375 -30.875 32.9375 -29 34 C-29 34.66 -29 35.32 -29 36 C-25.51678783 34.59189295 -24.18562895 33.13413212 -22.375 29.875 C-21.1484375 27.6796875 -21.1484375 27.6796875 -20 26 C-19.34 26 -18.68 26 -18 26 C-18 25.01 -18 24.02 -18 23 C-16.70493572 21.62946577 -15.36163216 20.30442072 -14 19 C-12.2051936 16.84175056 -10.51086242 14.60955614 -8.8125 12.375 C-8.36197266 11.78976563 -7.91144531 11.20453125 -7.44726562 10.6015625 C-5.0088547 7.43924613 -5.0088547 7.43924613 -3 4 C-2.34 4 -1.68 4 -1 4 C-0.67 2.68 -0.34 1.36 0 0 Z " fill="#412F23" transform="translate(331,74)"/>
<path d="M0 0 C0.99 0 1.98 0 3 0 C-0.55153203 12.19359331 -0.55153203 12.19359331 -2 15 C-2.99 15.33 -3.98 15.66 -5 16 C-5.33 15.67 -5.66 15.34 -6 15 C-6.74443359 15.97839844 -6.74443359 15.97839844 -7.50390625 16.9765625 C-11.63960514 22.29725291 -15.71550834 26.8164441 -21 31 C-21.66 30.67 -22.32 30.34 -23 30 C-22.01 29.67 -21.02 29.34 -20 29 C-19.30048082 27.68360525 -18.64045509 26.34612016 -18 25 C-16.63851123 23.26417115 -15.23826496 21.55843332 -13.8125 19.875 C-8.66157364 13.66896453 -3.45840347 7.33448852 0 0 Z " fill="#F08F29" transform="translate(475,221)"/>
<path d="M0 0 C0.495 0.99 0.495 0.99 1 2 C-5.17297712 3.43178863 -11.34787324 4.85506087 -17.52416992 6.27246094 C-19.62455546 6.75553178 -21.72449586 7.24054236 -23.82397461 7.72753906 C-26.84373572 8.42764928 -29.86503478 9.12074251 -32.88671875 9.8125 C-33.82335861 10.03123779 -34.75999847 10.24997559 -35.72502136 10.4753418 C-36.60555679 10.67554932 -37.48609222 10.87575684 -38.39331055 11.08203125 C-39.16386276 11.25968018 -39.93441498 11.4373291 -40.72831726 11.62036133 C-43.18890575 12.03156952 -45.50978022 12.06458689 -48 12 C-47.67 11.34 -47.34 10.68 -47 10 C-44.5151339 9.20759384 -42.09419654 8.53903475 -39.5625 7.9375 C-38.84126953 7.7612207 -38.12003906 7.58494141 -37.37695312 7.40332031 C-31.94768916 6.11999563 -26.58064989 5.26830048 -21 5 C-21 4.34 -21 3.68 -21 3 C-19.77023438 2.80083984 -19.77023438 2.80083984 -18.515625 2.59765625 C-16.89914063 2.33275391 -16.89914063 2.33275391 -15.25 2.0625 C-13.64898437 1.80146484 -13.64898437 1.80146484 -12.015625 1.53515625 C-10.26030807 1.22365571 -8.50932288 0.87560298 -6.78125 0.4375 C-4.49377943 -0.12433488 -2.34517842 -0.06514385 0 0 Z " fill="#D9372B" transform="translate(90,234)"/>
<path d="M0 0 C3.97106338 0.58566043 6.81820149 1.80975599 10.25 3.875 C11.55710938 4.64457031 11.55710938 4.64457031 12.890625 5.4296875 C15 7 15 7 16 10 C9.62626924 15.17767264 2.9929968 19.69963374 -4 24 C-4.66 23.01 -5.32 22.02 -6 21 C-4.68 21 -3.36 21 -2 21 C-2 20.34 -2 19.68 -2 19 C-1.01 18.67 -0.02 18.34 1 18 C1.33 17.01 1.66 16.02 2 15 C3.65 14.67 5.3 14.34 7 14 C7.33 13.01 7.66 12.02 8 11 C8.99 11 9.98 11 11 11 C7.64510857 6.65837579 4.63210523 3.90853119 0 1 C0 0.67 0 0.34 0 0 Z " fill="#553627" transform="translate(175,72)"/>
<path d="M0 0 C3.00536067 9.016082 4.91319934 18.17409264 6.47241211 27.53735352 C6.81761678 29.5929693 7.18102146 31.64488676 7.54492188 33.69726562 C7.87266602 35.64342773 7.87266602 35.64342773 8.20703125 37.62890625 C8.4078833 38.80525635 8.60873535 39.98160645 8.81567383 41.19360352 C8.87650146 42.11971436 8.9373291 43.0458252 9 44 C8.34 44.66 7.68 45.32 7 46 C4.85959795 37.04026402 2.98382236 28.05846621 1.3125 19 C1.08755859 17.81277344 0.86261719 16.62554687 0.63085938 15.40234375 C0.41880859 14.25894531 0.20675781 13.11554688 -0.01171875 11.9375 C-0.20209717 10.91527344 -0.39247559 9.89304687 -0.58862305 8.83984375 C-0.97616252 6.16455639 -1.15296662 3.69750177 -1 1 C-0.67 0.67 -0.34 0.34 0 0 Z " fill="#583122" transform="translate(74,92)"/>
<path d="M0 0 C0.66 0.33 1.32 0.66 2 1 C-1.625 6.875 -1.625 6.875 -5 8 C-5.70074844 11.153368 -6 13.72724974 -6 17 C-7.43011973 17.86646667 -8.86940619 18.71781829 -10.3125 19.5625 C-11.11300781 20.03816406 -11.91351563 20.51382812 -12.73828125 21.00390625 C-15 22 -15 22 -18 21 C-17.63237549 20.57702637 -17.26475098 20.15405273 -16.88598633 19.71826172 C-15.19420146 17.7710479 -13.50334572 15.82302937 -11.8125 13.875 C-11.23435547 13.20984375 -10.65621094 12.5446875 -10.06054688 11.859375 C-6.66182981 7.94220957 -3.30534865 3.99629724 0 0 Z M-8 13 C-8.33 13.66 -8.66 14.32 -9 15 C-8.34 15 -7.68 15 -7 15 C-7.33 14.34 -7.66 13.68 -8 13 Z " fill="#E35B2B" transform="translate(315,302)"/>
<path d="M0 0 C0.33 0 0.66 0 1 0 C0.35299955 9.86675685 -1.87379712 19.3678065 -4 29 C-8 29 -8 29 -10.75 26.5 C-11.4925 25.675 -12.235 24.85 -13 24 C-12.01 23.67 -11.02 23.34 -10 23 C-9.67 23.66 -9.34 24.32 -9 25 C-7.68 25 -6.36 25 -5 25 C-4.95101563 24.07058594 -4.90203125 23.14117187 -4.8515625 22.18359375 C-3.93486974 7.02655311 -3.93486974 7.02655311 0 0 Z " fill="#463526" transform="translate(368,126)"/>
<path d="M0 0 C0.66 0 1.32 0 2 0 C3.31255041 4.62303925 4.61222461 9.24943352 5.90014648 13.87939453 C6.3399902 15.45362324 6.78332414 17.02688113 7.23022461 18.59912109 C7.87234933 20.86048579 8.50180156 23.12505569 9.12890625 25.390625 C9.33093155 26.09181458 9.53295685 26.79300415 9.74110413 27.51544189 C11.46868758 33.84436489 11.46868758 33.84436489 10 37 C7.9375 38.25 7.9375 38.25 6 39 C6.33 38.34 6.66 37.68 7 37 C7.68602652 30.08256595 5.47475181 23.94734001 3.5 17.375 C2.83771155 15.15543869 2.18123 12.93413439 1.53125 10.7109375 C1.23798828 9.73431152 0.94472656 8.75768555 0.64257812 7.75146484 C0.01384762 5.05929433 -0.12291225 2.75235643 0 0 Z " fill="#3F2B1F" transform="translate(93,110)"/>
<path d="M0 0 C-1.2874148 3.57884873 -2.79266076 6.30901333 -5.15234375 9.28515625 C-5.76400391 10.06310547 -6.37566406 10.84105469 -7.00585938 11.64257812 C-7.64330078 12.44115234 -8.28074219 13.23972656 -8.9375 14.0625 C-10.19678209 15.65741984 -11.45590228 17.25246753 -12.71484375 18.84765625 C-13.27292725 19.54898682 -13.83101074 20.25031738 -14.40600586 20.97290039 C-15.50503227 22.37054418 -16.56129011 23.80252433 -17.58032227 25.25952148 C-18.04881592 25.83387939 -18.51730957 26.4082373 -19 27 C-19.66 27 -20.32 27 -21 27 C-19.67997942 23.42705968 -18.10478612 20.36046508 -16 17.1875 C-15.484375 16.39730469 -14.96875 15.60710938 -14.4375 14.79296875 C-13.963125 14.20128906 -13.48875 13.60960937 -13 13 C-12.34 13 -11.68 13 -11 13 C-10.87625 12.360625 -10.7525 11.72125 -10.625 11.0625 C-10.41875 10.381875 -10.2125 9.70125 -10 9 C-9.34 8.67 -8.68 8.34 -8 8 C-7.71125 7.21625 -7.4225 6.4325 -7.125 5.625 C-5.69068785 2.27827166 -3.82481358 0 0 0 Z " fill="#453322" transform="translate(360,39)"/>
<path d="M0 0 C0.66 0.33 1.32 0.66 2 1 C1.835 1.7425 1.67 2.485 1.5 3.25 C0.43284872 11.2536346 0.74748268 18.74522403 2.5546875 26.59765625 C3.26482495 30.42866091 3.12535685 34.11393761 3 38 C2.01 38.495 2.01 38.495 1 39 C0.4920154 35.00097233 -0.00493676 31.00064616 -0.5 27 C-0.64308594 25.87464844 -0.78617187 24.74929687 -0.93359375 23.58984375 C-2.93078859 7.32697148 -2.93078859 7.32697148 0 0 Z " fill="#D34729" transform="translate(65,18)"/>
<path d="M0 0 C0.66 0.33 1.32 0.66 2 1 C0.16810878 22.6934487 0.16810878 22.6934487 -4 31 C-4.99 31.66 -5.98 32.32 -7 33 C-6.74605469 31.87464844 -6.49210937 30.74929687 -6.23046875 29.58984375 C-4.02092637 19.75027346 -1.92722638 9.8989355 0 0 Z " fill="#D9722B" transform="translate(372,38)"/>
<path d="M0 0 C0.66 0 1.32 0 2 0 C0.51323244 3.20170243 -1.31188899 5.95207316 -3.375 8.8125 C-5.43215826 11.711223 -7.40695145 14.5752973 -9.125 17.6875 C-11.20789119 21.36727443 -13.40851926 24.65835379 -16 28 C-16.66 28 -17.32 28 -18 28 C-16.32018393 23.03913967 -13.53377184 18.91317582 -10.6875 14.5625 C-10.21376953 13.82451172 -9.74003906 13.08652344 -9.25195312 12.32617188 C-6.4186291 7.96572109 -3.52665778 3.83015673 0 0 Z " fill="#D54031" transform="translate(84,161)"/>
<path d="M0 0 C1.66081328 1.42355424 3.32076475 2.847951 4.9765625 4.27734375 C6.31021908 5.41275408 7.65908283 6.53057441 9.0234375 7.62890625 C9.65507812 8.14324219 10.28671875 8.65757812 10.9375 9.1875 C11.52402344 9.65542969 12.11054688 10.12335938 12.71484375 10.60546875 C14 12 14 12 14 15 C10.04093183 13.56691865 6.71281819 11.66858051 3.1875 9.375 C2.21167969 8.74335938 1.23585937 8.11171875 0.23046875 7.4609375 C-0.87361328 6.73777344 -0.87361328 6.73777344 -2 6 C-1.34 4.02 -0.68 2.04 0 0 Z " fill="#EB882B" transform="translate(204,310)"/>
<path d="M0 0 C0.66 0 1.32 0 2 0 C0.44 16.12 0.44 16.12 -2 21 C-0.06745228 23.0245738 1.63158688 24.42105792 4 26 C0 26 0 26 -2.8125 24.4375 C-3.534375 23.633125 -4.25625 22.82875 -5 22 C-4.61891044 16.86799393 -3.3091369 12.0013622 -1.9375 7.0625 C-1.75123047 6.37865234 -1.56496094 5.69480469 -1.37304688 4.99023438 C-0.91910943 3.32579707 -0.46009084 1.66274688 0 0 Z " fill="#483524" transform="translate(352,123)"/>
<path d="M0 0 C3.34555405 1.08238513 5.28637137 2.24460888 8 4.5625 C10.91319147 6.92946807 12.34300269 7.67732377 16 8 C16 8.99 16 9.98 16 11 C16.66 11.33 17.32 11.66 18 12 C18 12.66 18 13.32 18 14 C18.99 14 19.98 14 21 14 C21 14.99 21 15.98 21 17 C21.8971875 17.433125 21.8971875 17.433125 22.8125 17.875 C25 19 25 19 28 21 C27.67 21.66 27.34 22.32 27 23 C21.2977945 18.5077433 15.67393545 13.92972054 10.125 9.25 C9.3047937 8.56103638 9.3047937 8.56103638 8.46801758 7.8581543 C5.51266472 5.35523032 2.69275357 2.78381287 0 0 Z " fill="#B85A35" transform="translate(109,42)"/>
<path d="M0 0 C0.99 0.33 1.98 0.66 3 1 C1.02 5.29 -0.96 9.58 -3 14 C-4.32 13.67 -5.64 13.34 -7 13 C-7.74609375 11.296875 -7.74609375 11.296875 -8 9 C-6.34765625 6.640625 -6.34765625 6.640625 -4.0625 4.25 C-3.31097656 3.45078125 -2.55945313 2.6515625 -1.78515625 1.828125 C-1.19605469 1.22484375 -0.60695313 0.6215625 0 0 Z " fill="#F0802D" transform="translate(364,244)"/>
<path d="M0 0 C0 3 0 3 -1.5390625 4.71875 C-5.51828473 8.11673752 -9.16075964 10.89598245 -14 13 C-15.0725 13.5775 -16.145 14.155 -17.25 14.75 C-18.61125 15.36875 -18.61125 15.36875 -20 16 C-20.66 15.67 -21.32 15.34 -22 15 C-21.278125 14.51789063 -20.55625 14.03578125 -19.8125 13.5390625 C-18.884375 12.90742187 -17.95625 12.27578125 -17 11.625 C-16.071875 10.99851562 -15.14375 10.37203125 -14.1875 9.7265625 C-13.1046875 8.87191406 -13.1046875 8.87191406 -12 8 C-12 7.34 -12 6.68 -12 6 C-11.319375 5.938125 -10.63875 5.87625 -9.9375 5.8125 C-5.96821063 4.71461145 -3.21360445 2.50976025 0 0 Z " fill="#DF5C2C" transform="translate(162,102)"/>
<path d="M0 0 C0.33 0 0.66 0 1 0 C1.66 2.64 2.32 5.28 3 8 C5.40877257 7.88658466 5.40877257 7.88658466 8 7 C9.84434349 4.53884453 9.84434349 4.53884453 11 2 C12.32 2.66 13.64 3.32 15 4 C11.37 6.97 7.74 9.94 4 13 C2.68 12.34 1.36 11.68 0 11 C-0.64453125 8.65234375 -0.64453125 8.65234375 -0.8125 5.9375 C-0.88082031 5.03902344 -0.94914062 4.14054688 -1.01953125 3.21484375 C-1 1 -1 1 0 0 Z " fill="#4B3328" transform="translate(84,146)"/>
<path d="M0 0 C8.9100346 -0.62283737 8.9100346 -0.62283737 13.0625 1.75 C14.99739698 3.99697713 15.5093009 5.15394523 16 8 C16.66 8.33 17.32 8.66 18 9 C18 10.98 18 12.96 18 15 C17.34 15 16.68 15 16 15 C15.67 15.66 15.34 16.32 15 17 C15 13.7 15 10.4 15 7 C14.34 7 13.68 7 13 7 C12.1646875 6.01 12.1646875 6.01 11.3125 5 C8.17642068 2.28771518 6.03139577 2.92534452 2 3 C1.34 2.01 0.68 1.02 0 0 Z " fill="#E57E2C" transform="translate(370,12)"/>
<path d="M0 0 C2.90426705 -0.34574608 5.11804487 -0.58374009 7.62890625 1.078125 C9.10416255 2.36481471 10.55299573 3.68161833 12 5 C12.99 5.33 13.98 5.66 15 6 C15.33 6.99 15.66 7.98 16 9 C10.72571683 8.45904788 5.44754712 6.94942598 1 4 C0.23828125 1.86328125 0.23828125 1.86328125 0 0 Z " fill="#69452F" transform="translate(209,350)"/>
<path d="M0 0 C1 3 1 3 0.3125 5.375 C-1.4648056 8.92961119 -3.70465458 11.80429654 -6.625 14.5 C-8.1907752 16.01673827 -8.1907752 16.01673827 -8.9375 18.5625 C-10 21 -10 21 -12.125 22.3125 C-13.053125 22.6528125 -13.053125 22.6528125 -14 23 C-12.72199484 19.55044666 -11.23881563 16.61909971 -9.1796875 13.57421875 C-8.64472656 12.77822266 -8.10976563 11.98222656 -7.55859375 11.16210938 C-7.00300781 10.34548828 -6.44742188 9.52886719 -5.875 8.6875 C-5.31167969 7.85154297 -4.74835937 7.01558594 -4.16796875 6.15429688 C-2.78279211 4.10000948 -1.39337781 2.04872962 0 0 Z " fill="#D93431" transform="translate(56,203)"/>
<path d="M0 0 C0.33 0.99 0.66 1.98 1 3 C-0.05058594 3.03738281 -1.10117187 3.07476562 -2.18359375 3.11328125 C-9.96113653 3.45493759 -16.71177647 4.00662248 -24 7 C-24 6.34 -24 5.68 -24 5 C-15.82564438 1.46380994 -8.98492259 -0.18336577 0 0 Z " fill="#D79C2D" transform="translate(268,316)"/>
<path d="M0 0 C5.75 1.875 5.75 1.875 8 3 C8 3.66 8 4.32 8 5 C7.34 5 6.68 5 6 5 C6.33 5.99 6.66 6.98 7 8 C7.66 8.33 8.32 8.66 9 9 C10.32421875 11.21484375 10.32421875 11.21484375 11.6875 13.9375 C12.14511719 14.83339844 12.60273438 15.72929687 13.07421875 16.65234375 C13.37972656 17.42707031 13.68523437 18.20179688 14 19 C13.67 19.66 13.34 20.32 13 21 C11.39526997 18.4378513 9.79119818 15.87529445 8.1875 13.3125 C7.73568359 12.59126953 7.28386719 11.87003906 6.81835938 11.12695312 C4.51067858 7.43803272 2.2214713 3.74181379 0 0 Z " fill="#E06620" transform="translate(224,159)"/>
<path d="M0 0 C0.75410156 0.00322266 1.50820312 0.00644531 2.28515625 0.00976562 C3.06246094 0.01814453 3.83976562 0.02652344 4.640625 0.03515625 C5.43339844 0.03966797 6.22617188 0.04417969 7.04296875 0.04882812 C8.99222008 0.0605706 10.94143238 0.07850479 12.890625 0.09765625 C12.560625 0.75765625 12.230625 1.41765625 11.890625 2.09765625 C9.44921875 2.51171875 9.44921875 2.51171875 6.328125 2.72265625 C5.24917969 2.79613281 4.17023438 2.86960937 3.05859375 2.9453125 C-0.67614264 3.12491141 -4.37148914 3.16953867 -8.109375 3.09765625 C-8.109375 2.43765625 -8.109375 1.77765625 -8.109375 1.09765625 C-5.33213575 0.3107718 -2.88327423 -0.02184299 0 0 Z " fill="#AC432B" transform="translate(118.109375,268.90234375)"/>
<path d="M0 0 C2 1 2 1 3.0703125 4.1328125 C3.43043155 5.46125165 3.78161012 6.79213853 4.125 8.125 C4.30675781 8.77726562 4.48851563 9.42953125 4.67578125 10.1015625 C5.83225056 14.48397253 6.17788946 18.43417045 6 23 C3.30899268 20.30899268 2.80251281 17.32951241 1.875 13.75 C1.69324219 13.09386719 1.51148437 12.43773438 1.32421875 11.76171875 C0.26352683 7.75022975 -0.19297772 4.14258841 0 0 Z " fill="#56352C" transform="translate(87,86)"/>
<path d="M0 0 C2.125 1.9375 2.125 1.9375 3.33203125 3.3203125 C7.06897896 7.08351511 11.67763592 9.94936475 16 13 C15.01 13.495 15.01 13.495 14 14 C10.90874157 12.96958052 10.15418925 12.27018406 8 10 C3.54590637 6.22776079 3.54590637 6.22776079 -1.9375 4.6875 C-2.618125 4.790625 -3.29875 4.89375 -4 5 C-3.67 4.01 -3.34 3.02 -3 2 C-3.66 1.67 -4.32 1.34 -5 1 C-2.8125 0.1875 -2.8125 0.1875 0 0 Z " fill="#DF9B34" transform="translate(262,80)"/>
<path d="M0 0 C0.66 0.33 1.32 0.66 2 1 C-11.76923077 14 -11.76923077 14 -18 14 C-18 13.34 -18 12.68 -18 12 C-17.34 12 -16.68 12 -16 12 C-16 11.34 -16 10.68 -16 10 C-14.58671871 9.18162558 -13.16921654 8.37053781 -11.75 7.5625 C-10.96109375 7.11003906 -10.1721875 6.65757812 -9.359375 6.19140625 C-7.21166532 5.10688398 -5.34794939 4.46851284 -3 4 C-3 3.34 -3 2.68 -3 2 C-2.01 1.34 -1.02 0.68 0 0 Z " fill="#E66F25" transform="translate(461,276)"/>
<path d="M0 0 C0.66 0.33 1.32 0.66 2 1 C-0.94491537 4.19032498 -2.76009006 6.09144787 -7 7 C-7.33 7.99 -7.66 8.98 -8 10 C-10.875 12.25 -10.875 12.25 -14 14 C-14.99 13.67 -15.98 13.34 -17 13 C-14.91689914 11.39553069 -12.83352773 9.79141482 -10.75 8.1875 C-10.16347656 7.73568359 -9.57695313 7.28386719 -8.97265625 6.81835938 C-5.99542152 4.5268922 -3.01280445 2.24468847 0 0 Z " fill="#DA5431" transform="translate(130,124)"/>
<path d="M0 0 C0.99 1.32 1.98 2.64 3 4 C1.68 4 0.36 4 -1 4 C-1 4.66 -1 5.32 -1 6 C-0.34 6.33 0.32 6.66 1 7 C-2.96 7 -6.92 7 -11 7 C-8.42355713 4.42355713 -6.96726521 3.31230641 -3.8125 1.8125 C-2.73935547 1.29623047 -2.73935547 1.29623047 -1.64453125 0.76953125 C-1.10183594 0.51558594 -0.55914062 0.26164062 0 0 Z " fill="#E86C31" transform="translate(378,297)"/>
<path d="M0 0 C0.33 0.66 0.66 1.32 1 2 C-8.405 3.98 -8.405 3.98 -18 6 C-18 5.34 -18 4.68 -18 4 C-18.99 3.67 -19.98 3.34 -21 3 C-20.18015625 2.86722656 -19.3603125 2.73445312 -18.515625 2.59765625 C-17.43796875 2.42105469 -16.3603125 2.24445313 -15.25 2.0625 C-14.18265625 1.88847656 -13.1153125 1.71445313 -12.015625 1.53515625 C-10.26030807 1.22365571 -8.50932288 0.87560298 -6.78125 0.4375 C-4.49377943 -0.12433488 -2.34517842 -0.06514385 0 0 Z " fill="#E0472E" transform="translate(90,234)"/>
<path d="M0 0 C0.66 0.66 1.32 1.32 2 2 C-0.11953017 4.00609052 -2.24513441 6.00493603 -4.375 8 C-5.27992188 8.85851562 -5.27992188 8.85851562 -6.203125 9.734375 C-7.07324219 10.54648437 -7.07324219 10.54648437 -7.9609375 11.375 C-8.49509277 11.87773438 -9.02924805 12.38046875 -9.57958984 12.8984375 C-11 14 -11 14 -13 14 C-12.67 13.01 -12.34 12.02 -12 11 C-11.34 11 -10.68 11 -10 11 C-9.9175 10.38125 -9.835 9.7625 -9.75 9.125 C-8.76174558 6.32494581 -7.59640015 6.25886068 -5 5 C-4.31731862 3.67479497 -3.6492959 2.34187818 -3 1 C-2.01 0.67 -1.02 0.34 0 0 Z " fill="#8A4C37" transform="translate(331,51)"/>
<path d="M0 0 C2 1.375 2 1.375 4 3 C4 3.66 4 4.32 4 5 C4.5775 5.268125 5.155 5.53625 5.75 5.8125 C8 7 8 7 10.0625 8.5625 C12.04181496 10.18688728 12.04181496 10.18688728 15 11 C14.67 11.99 14.34 12.98 14 14 C9.78997754 12.61660008 7.2932797 10.69918298 4.1875 7.5625 C3.39730469 6.78003906 2.60710937 5.99757813 1.79296875 5.19140625 C0 3 0 3 0 0 Z " fill="#39281E" transform="translate(140,95)"/>
<path d="M0 0 C0.99 0.495 1.98 0.99 3 1.5 C3 1.83 3 2.16 3 2.5 C2.03578125 2.41621094 1.0715625 2.33242187 0.078125 2.24609375 C-1.18515625 2.14425781 -2.4484375 2.04242188 -3.75 1.9375 C-5.00296875 1.83308594 -6.2559375 1.72867187 -7.546875 1.62109375 C-10.39452364 1.52123277 -12.34286067 1.59415705 -15 2.5 C-15.33 1.84 -15.66 1.18 -16 0.5 C-11.02110403 -2.81926398 -5.25586299 -2.24946672 0 0 Z M-17 1.5 C-17 4.5 -17 4.5 -17 4.5 Z " fill="#D85831" transform="translate(84,13.5)"/>
<path d="M0 0 C0.66 0 1.32 0 2 0 C2 0.99 2 1.98 2 3 C-3.28 5.97 -8.56 8.94 -14 12 C-14.33 11.01 -14.66 10.02 -15 9 C-13.68 8.67 -12.36 8.34 -11 8 C-11 7.34 -11 6.68 -11 6 C-9.5437455 5.32880451 -8.08492133 4.66318193 -6.625 4 C-5.81289063 3.62875 -5.00078125 3.2575 -4.1640625 2.875 C-2 2 -2 2 0 2 C0 1.34 0 0.68 0 0 Z " fill="#E95A2B" transform="translate(338,298)"/>
<path d="M0 0 C0.66 0.66 1.32 1.32 2 2 C-3.28 5.3 -8.56 8.6 -14 12 C-14.33 11.01 -14.66 10.02 -15 9 C-10.05 6.03 -5.1 3.06 0 0 Z " fill="#F07E29" transform="translate(404,259)"/>
<path d="M0 0 C-1.98 0.99 -1.98 0.99 -4 2 C-2.02 2.99 -0.04 3.98 2 5 C2 5.66 2 6.32 2 7 C1.29875 6.855625 0.5975 6.71125 -0.125 6.5625 C-3.07556141 5.98521625 -6.03270151 5.48304859 -9 5 C-9.33 3.68 -9.66 2.36 -10 1 C-3.375 -1.125 -3.375 -1.125 0 0 Z " fill="#884538" transform="translate(73,288)"/>
<path d="M0 0 C0.99 0 1.98 0 3 0 C3 0.66 3 1.32 3 2 C1.2421875 2.9765625 -0.515625 3.953125 -2.2734375 4.9296875 C-4.1612614 6.00897274 -4.1612614 6.00897274 -6 8 C-7.9453125 8.8515625 -7.9453125 8.8515625 -10.125 9.625 C-10.84945313 9.88539063 -11.57390625 10.14578125 -12.3203125 10.4140625 C-13.15175781 10.70410156 -13.15175781 10.70410156 -14 11 C-12.96583798 8.23831732 -12.24169856 7.1477954 -9.6875 5.5859375 C-8.800625 5.18632812 -7.91375 4.78671875 -7 4.375 C-3.18696865 2.64909857 -3.18696865 2.64909857 0 0 Z " fill="#EB7626" transform="translate(438,272)"/>
<path d="M0 0 C0.68707555 2.49064888 1 4.37886292 1 7 C-1.70794407 10.08404742 -4.17647894 12.4422692 -8 14 C-6.6744419 10.37723685 -5.05653045 7.36494652 -2.875 4.1875 C-2.33617187 3.39730469 -1.79734375 2.60710937 -1.2421875 1.79296875 C-0.83226563 1.20128906 -0.42234375 0.60960937 0 0 Z " fill="#E03F36" transform="translate(65,189)"/>
<path d="M0 0 C0 4.36958347 -2.50322715 5.8663608 -5.46875 8.8671875 C-7.32042117 11.44630092 -7.30302715 12.89397174 -7 16 C-8.65 16.66 -10.3 17.32 -12 18 C-10.17301482 10.69205928 -5.4604995 5.04046107 0 0 Z " fill="#463324" transform="translate(283,223)"/>
<path d="M0 0 C-1.50739993 4.04665101 -3.90234959 5.5639685 -7.5 7.8125 C-8.4796875 8.43769531 -9.459375 9.06289063 -10.46875 9.70703125 C-11.3040625 10.13371094 -12.139375 10.56039062 -13 11 C-13.66 10.67 -14.32 10.34 -15 10 C-11.33829025 5.99500496 -5.76187936 0 0 0 Z " fill="#9D4F23" transform="translate(335,33)"/>
<path d="M0 0 C3.81772639 1.75939964 6.83454435 4.13980718 10.09765625 6.7578125 C12.03998621 8.27336985 12.03998621 8.27336985 15 8 C15.33 9.32 15.66 10.64 16 12 C14.35 11.67 12.7 11.34 11 11 C11 10.34 11 9.68 11 9 C10.443125 8.731875 9.88625 8.46375 9.3125 8.1875 C6.78774666 6.89100504 4.36285516 5.57523677 2 4 C2 3.34 2 2.68 2 2 C1.34 2 0.68 2 0 2 C0 1.34 0 0.68 0 0 Z " fill="#E1A834" transform="translate(349,147)"/>
<path d="M0 0 C0.33 0.99 0.66 1.98 1 3 C-4.94 7.95 -4.94 7.95 -11 13 C-11.33 12.01 -11.66 11.02 -12 10 C-8.89973691 6.72257902 -6.02901106 4.06895163 -2 2 C-1.34 2 -0.68 2 0 2 C0 1.34 0 0.68 0 0 Z " fill="#AD5B31" transform="translate(345,39)"/>
<path d="M0 0 C0.53625 0.226875 1.0725 0.45375 1.625 0.6875 C1.99423077 5.24134615 1.99423077 5.24134615 0.125 7.5 C-0.37 7.891875 -0.865 8.28375 -1.375 8.6875 C-1.375 6.7075 -1.375 4.7275 -1.375 2.6875 C-3.88583114 3.94291557 -4.24625446 5.18813488 -5.375 7.6875 C-5.705 6.6975 -6.035 5.7075 -6.375 4.6875 C-7.035 4.0275 -7.695 3.3675 -8.375 2.6875 C-2.95961538 -0.38942308 -2.95961538 -0.38942308 0 0 Z " fill="#473424" transform="translate(294.375,218.3125)"/>
<path d="M0 0 C2.475 0.99 2.475 0.99 5 2 C3.44191344 12.55808656 3.44191344 12.55808656 -1 17 C-0.67 15.02 -0.34 13.04 0 11 C0.66 11 1.32 11 2 11 C2 8.03 2 5.06 2 2 C1.34 2 0.68 2 0 2 C0 1.34 0 0.68 0 0 Z " fill="#533D29" transform="translate(307,217)"/>
<path d="M0 0 C5.82665994 3.80351413 11.48221873 7.76017897 17 12 C16.01 12.495 16.01 12.495 15 13 C12.5249829 11.88568235 10.32116581 10.41849022 8 9 C8 8.34 8 7.68 8 7 C7.01 7 6.02 7 5 7 C5 6.34 5 5.68 5 5 C4.34 5 3.68 5 3 5 C3 4.34 3 3.68 3 3 C2.01 2.67 1.02 2.34 0 2 C0 1.34 0 0.68 0 0 Z " fill="#E3A033" transform="translate(284,98)"/>
<path d="M0 0 C0.66 0.66 1.32 1.32 2 2 C-0.0992764 3.3416203 -2.2037832 4.67336839 -4.3125 6 C-4.90740234 6.3815625 -5.50230469 6.763125 -6.11523438 7.15625 C-10.66015625 10 -10.66015625 10 -14 10 C-14 9.34 -14 8.68 -14 8 C-9.38 5.36 -4.76 2.72 0 0 Z " fill="#E86728" transform="translate(366,282)"/>
<path d="M0 0 C0.33 0 0.66 0 1 0 C0.50130596 5.36891879 -0.02227532 10.69235173 -1 16 C-1.33 15.34 -1.66 14.68 -2 14 C-2.66 14 -3.32 14 -4 14 C-3.71572583 12.41532272 -3.42225182 10.8322943 -3.125 9.25 C-2.96257812 8.36828125 -2.80015625 7.4865625 -2.6328125 6.578125 C-2.03203736 4.13052256 -1.22002883 2.19400143 0 0 Z " fill="#4D4136" transform="translate(368,126)"/>
<path d="M0 0 C0.66 0 1.32 0 2 0 C1.48594831 4.96916636 0.76615118 9.29026351 -1 14 C-1.66 13.67 -2.32 13.34 -3 13 C-2.69240822 11.02006459 -2.3787932 9.04106401 -2.0625 7.0625 C-1.88847656 5.96035156 -1.71445312 4.85820313 -1.53515625 3.72265625 C-1 1 -1 1 0 0 Z " fill="#523928" transform="translate(357,104)"/>
<path d="M0 0 C0 0.66 0 1.32 0 2 C-2.10171867 2.8394882 -4.20646625 3.67139656 -6.3125 4.5 C-7.48425781 4.9640625 -8.65601563 5.428125 -9.86328125 5.90625 C-13 7 -13 7 -16 7 C-16 6.34 -16 5.68 -16 5 C-13.89828133 4.1605118 -11.79353375 3.32860344 -9.6875 2.5 C-8.51574219 2.0359375 -7.34398437 1.571875 -6.13671875 1.09375 C-3 0 -3 0 0 0 Z " fill="#E56727" transform="translate(439,291)"/>
<path d="M0 0 C0.66 0.33 1.32 0.66 2 1 C1.855625 1.804375 1.71125 2.60875 1.5625 3.4375 C0.90311661 7.61359481 0.43908647 11.79598059 0 16 C-2 14 -2 14 -2.25 10.25 C-2.16876295 6.54017494 -1.38476789 3.46191974 0 0 Z " fill="#DC5736" transform="translate(65,18)"/>
<path d="M0 0 C3 2 3 2 3.51171875 4.0234375 C3.56972656 4.79945312 3.62773438 5.57546875 3.6875 6.375 C3.75324219 7.14585938 3.81898437 7.91671875 3.88671875 8.7109375 C3.99035324 10.80506895 4 12.90330578 4 15 C3.34 15 2.68 15 2 15 C1.66223316 13.2508503 1.32996329 11.50063855 1 9.75 C0.814375 8.77546875 0.62875 7.8009375 0.4375 6.796875 C0 4 0 4 0 0 Z " fill="#854230" transform="translate(70,78)"/>
<path d="M0 0 C0.66 0 1.32 0 2 0 C2.36220266 1.79005941 2.71452469 3.58212057 3.0625 5.375 C3.25972656 6.37273438 3.45695312 7.37046875 3.66015625 8.3984375 C4 11 4 11 3 13 C2.34 13 1.68 13 1 13 C-0.10228696 8.59085217 -0.07654536 4.51617599 0 0 Z " fill="#AF4930" transform="translate(67,56)"/>
<path d="M0 0 C2.53827244 0.45326294 3.94137988 0.95420304 6 2.5625 C8.13084232 4.3890907 8.13084232 4.3890907 12 4 C12.66 5.32 13.32 6.64 14 8 C13.01 8.495 13.01 8.495 12 9 C9.43359375 7.63671875 9.43359375 7.63671875 6.4375 5.6875 C4.95056641 4.73423828 4.95056641 4.73423828 3.43359375 3.76171875 C1 2 1 2 0 0 Z " fill="#DA342F" transform="translate(37,255)"/>
<path d="M0 0 C0.99 0.33 1.98 0.66 3 1 C3.05422947 2.4370809 3.09289723 3.87475462 3.125 5.3125 C3.14820313 6.11300781 3.17140625 6.91351563 3.1953125 7.73828125 C3 10 3 10 1 13 C-0.00496852 9.98509443 -0.10335303 7.95818308 -0.0625 4.8125 C-0.05347656 3.91144531 -0.04445312 3.01039063 -0.03515625 2.08203125 C-0.02355469 1.39496094 -0.01195312 0.70789063 0 0 Z " fill="#D59436" transform="translate(182,221)"/>
<path d="M0 0 C0.66 0 1.32 0 2 0 C3.5830205 1.73696562 5.09353724 3.54056497 6.5625 5.375 C7.36816406 6.37273437 8.17382812 7.37046875 9.00390625 8.3984375 C11 11 11 11 12 13 C8.62801098 11.53424802 6.35012996 9.64818479 3.75 7.0625 C3.04359375 6.37285156 2.3371875 5.68320313 1.609375 4.97265625 C0 3 0 3 0 0 Z " fill="#3A271D" transform="translate(128,82)"/>
<path d="M0 0 C0.99 0.33 1.98 0.66 3 1 C-0.7935871 4.21880117 -4.65829477 6.6163187 -9 9 C-9.66 8.34 -10.32 7.68 -11 7 C-9.23754778 5.8000962 -7.46473019 4.61540483 -5.6875 3.4375 C-4.70136719 2.77621094 -3.71523438 2.11492188 -2.69921875 1.43359375 C-1.80847656 0.96050781 -0.91773438 0.48742188 0 0 Z " fill="#603721" transform="translate(306,51)"/>
<path d="M0 0 C0.33 0 0.66 0 1 0 C1.20705288 5.07279555 0.77935998 9.22382322 -1 14 C-1.99 14.66 -2.98 15.32 -4 16 C-2.68 10.72 -1.36 5.44 0 0 Z " fill="#B8632E" transform="translate(369,55)"/>
<path d="M0 0 C0.66 0.66 1.32 1.32 2 2 C-3.12919186 4.10428384 -7.5610835 4.21755666 -13 4 C-13 3.34 -13 2.68 -13 2 C-10.87745145 1.61136435 -8.75183172 1.23946791 -6.625 0.875 C-4.84996094 0.56175781 -4.84996094 0.56175781 -3.0390625 0.2421875 C-2.03617187 0.16226562 -1.03328125 0.08234375 0 0 Z " fill="#2E2720" transform="translate(270,346)"/>
<path d="M0 0 C0 0.99 0 1.98 0 3 C-6.5 7 -6.5 7 -11 7 C-11 6.34 -11 5.68 -11 5 C-7.37 3.35 -3.74 1.7 0 0 Z " fill="#EB8426" transform="translate(394,253)"/>
<path d="M0 0 C0.66 0 1.32 0 2 0 C1.71861942 2.29295236 1.4245814 4.58435456 1.125 6.875 C0.88136719 8.78925781 0.88136719 8.78925781 0.6328125 10.7421875 C0 14 0 14 -2 16 C-3.60892302 11.97769245 -2.26028279 8.99089549 -1 5 C-0.64628502 3.33753959 -0.30404678 1.67225729 0 0 Z " fill="#B8622B" transform="translate(380,60)"/>
<path d="M0 0 C0.66 0.66 1.32 1.32 2 2 C0.21118264 3.00508801 -1.58114696 4.00392736 -3.375 5 C-4.37273437 5.556875 -5.37046875 6.11375 -6.3984375 6.6875 C-9 8 -9 8 -11 8 C-11 7.34 -11 6.68 -11 6 C-7.37 4.02 -3.74 2.04 0 0 Z " fill="#EA7429" transform="translate(422,274)"/>
<path d="M0 0 C0.66 0.66 1.32 1.32 2 2 C0.625 3.5 0.625 3.5 -1 5 C-1.66 5 -2.32 5 -3 5 C-3.2475 5.78375 -3.495 6.5675 -3.75 7.375 C-5.15389099 10.32317108 -6.00675737 10.9024777 -9 12 C-7.55575365 8.76138697 -5.74227753 6.38030837 -3.375 3.75 C-2.74335938 3.04359375 -2.11171875 2.3371875 -1.4609375 1.609375 C-0.97882813 1.07828125 -0.49671875 0.5471875 0 0 Z " fill="#E76325" transform="translate(342,270)"/>
<path d="M0 0 C0 0.66 0 1.32 0 2 C-1.5811292 2.50692692 -3.16501383 3.00526443 -4.75 3.5 C-5.63171875 3.7784375 -6.5134375 4.056875 -7.421875 4.34375 C-10 5 -10 5 -14 5 C-13.67 4.01 -13.34 3.02 -13 2 C-12.06027344 1.90912109 -12.06027344 1.90912109 -11.1015625 1.81640625 C-9.87566406 1.69072266 -9.87566406 1.69072266 -8.625 1.5625 C-7.81289062 1.48128906 -7.00078125 1.40007812 -6.1640625 1.31640625 C-3.85304959 0.97851447 -2.33455672 0 0 0 Z " fill="#E4542B" transform="translate(106,230)"/>
<path d="M0 0 C0 0.66 0 1.32 0 2 C-9.41002278 5.25968109 -9.41002278 5.25968109 -14 6 C-13.34 5.67 -12.68 5.34 -12 5 C-12 4.34 -12 3.68 -12 3 C-10.75336669 2.49166409 -9.50250613 1.99368855 -8.25 1.5 C-7.55390625 1.2215625 -6.8578125 0.943125 -6.140625 0.65625 C-4 0 -4 0 0 0 Z " fill="#983B27" transform="translate(109,271)"/>
<path d="M0 0 C0.66 0 1.32 0 2 0 C2.05395478 1.62463842 2.09277195 3.24978541 2.125 4.875 C2.14820313 5.77992188 2.17140625 6.68484375 2.1953125 7.6171875 C2 10 2 10 0 12 C-1.17661508 8.32307787 -1.14475933 4.8361222 -1 1 C-0.67 0.67 -0.34 0.34 0 0 Z " fill="#DB9237" transform="translate(291,221)"/>
<path d="M0 0 C1.98 0.66 3.96 1.32 6 2 C6 2.66 6 3.32 6 4 C8.31 3.01 10.62 2.02 13 1 C12.25 2.9375 12.25 2.9375 11 5 C9.15625 5.77734375 9.15625 5.77734375 7 6 C5.078125 5.0390625 5.078125 5.0390625 3.25 3.625 C2.63640625 3.16351563 2.0228125 2.70203125 1.390625 2.2265625 C0.93171875 1.82179688 0.4728125 1.41703125 0 1 C0 0.67 0 0.34 0 0 Z " fill="#4D3628" transform="translate(296,106)"/>
<path d="M0 0 C4.84590538 0.44053685 8.48141867 2.74505877 12 6 C12 6.66 12 7.32 12 8 C7.44328408 6.48109469 3.68276708 4.04597738 0 1 C0 0.67 0 0.34 0 0 Z " fill="#753A22" transform="translate(155,59)"/>
<path d="M0 0 C0.66 0 1.32 0 2 0 C3.16343227 2.32686453 3.19895988 3.84721413 3.25 6.4375 C3.27578125 7.21996094 3.3015625 8.00242187 3.328125 8.80859375 C3 11 3 11 0 14 C0 9.38 0 4.76 0 0 Z " fill="#3E3022" transform="translate(280,327)"/>
<path d="M0 0 C0.99 0.495 0.99 0.495 2 1 C2.703125 3.65234375 2.703125 3.65234375 3.25 6.9375 C3.44078125 8.01902344 3.6315625 9.10054687 3.828125 10.21484375 C3.88484375 11.13394531 3.9415625 12.05304688 4 13 C3.34 13.66 2.68 14.32 2 15 C0.2520497 9.75614911 -0.19392201 5.52677733 0 0 Z " fill="#402B24" transform="translate(79,123)"/>
<path d="M0 0 C4.38462134 0.50109958 6.8000997 1.98295115 10 5 C10 5.66 10 6.32 10 7 C10.66 7 11.32 7 12 7 C12 7.66 12 8.32 12 9 C8.98472262 7.59422879 6.4052059 5.93873852 3.75 3.9375 C3.04359375 3.41027344 2.3371875 2.88304688 1.609375 2.33984375 C1.07828125 1.89769531 0.5471875 1.45554687 0 1 C0 0.67 0 0.34 0 0 Z " fill="#462D20" transform="translate(175,72)"/>
<path d="M0 0 C0.66 0.99 1.32 1.98 2 3 C2.33 2.34 2.66 1.68 3 1 C5.31 1 7.62 1 10 1 C7.6870518 3.3129482 6.52095125 3.49580975 3.375 4.125 C2.55773437 4.29257812 1.74046875 4.46015625 0.8984375 4.6328125 C-0.04128906 4.81457031 -0.04128906 4.81457031 -1 5 C-1.33 4.01 -1.66 3.02 -2 2 C-1.34 1.34 -0.68 0.68 0 0 Z " fill="#E4692D" transform="translate(389,295)"/>
<path d="M0 0 C4.12751449 0.60698743 7.3321148 2.03810791 11 4 C10.34 4.66 9.68 5.32 9 6 C4.545 4.02 4.545 4.02 0 2 C0 1.34 0 0.68 0 0 Z " fill="#CC662A" transform="translate(164,294)"/>
<path d="M0 0 C-3.5087188 3.09592835 -6.49197399 4.74194623 -11 6 C-10.9375 4.1875 -10.9375 4.1875 -10 2 C-3.87234043 -1.29078014 -3.87234043 -1.29078014 0 0 Z " fill="#7C3424" transform="translate(89,281)"/>
<path d="M0 0 C8.57142857 1 8.57142857 1 12 2 C12 2.66 12 3.32 12 4 C7.53160785 4.21278058 4.17737474 3.59138085 0 2 C0 1.34 0 0.68 0 0 Z " fill="#DC352C" transform="translate(38,249)"/>
<path d="M0 0 C0 0.99 0 1.98 0 3 C-1.75 4.60546875 -1.75 4.60546875 -4 6.1875 C-4.7425 6.71730469 -5.485 7.24710937 -6.25 7.79296875 C-6.8275 8.19128906 -7.405 8.58960937 -8 9 C-9.32 8.34 -10.64 7.68 -12 7 C-11.14148438 6.84724609 -11.14148438 6.84724609 -10.265625 6.69140625 C-7.59724354 5.87708984 -5.94034312 4.65326878 -3.75 2.9375 C-3.04359375 2.38964844 -2.3371875 1.84179688 -1.609375 1.27734375 C-0.81273437 0.64505859 -0.81273437 0.64505859 0 0 Z " fill="#CA6436" transform="translate(162,102)"/>
<path d="M0 0 C3.94120709 0.56302958 6.7508723 1.6791945 10 4 C10 4.66 10 5.32 10 6 C8.68 6 7.36 6 6 6 C6 5.34 6 4.68 6 4 C5.195625 3.71125 4.39125 3.4225 3.5625 3.125 C1 2 1 2 0 0 Z " fill="#6B3422" transform="translate(119,290)"/>
<path d="M0 0 C0.66 0.33 1.32 0.66 2 1 C2.4140625 3.72265625 2.4140625 3.72265625 2.625 7.0625 C2.69976562 8.16722656 2.77453125 9.27195312 2.8515625 10.41015625 C2.90054687 11.26480469 2.94953125 12.11945313 3 13 C2.34 13 1.68 13 1 13 C0.63631108 11.39796533 0.28438048 9.79325797 -0.0625 8.1875 C-0.25972656 7.29417969 -0.45695312 6.40085937 -0.66015625 5.48046875 C-1 3 -1 3 0 0 Z " fill="#ED9622" transform="translate(266,259)"/>
<path d="M0 0 C0 0.66 0 1.32 0 2 C-1.45264038 2.8638129 -2.9123163 3.71580454 -4.375 4.5625 C-5.59316406 5.27599609 -5.59316406 5.27599609 -6.8359375 6.00390625 C-7.55007813 6.33261719 -8.26421875 6.66132812 -9 7 C-9.66 6.67 -10.32 6.34 -11 6 C-8.98932585 1.9786517 -4.28943425 0 0 0 Z " fill="#4E3323" transform="translate(297,59)"/>
<path d="M0 0 C3.5875213 1.33250791 6.8364623 2.830717 10 5 C10 5.66 10 6.32 10 7 C6.4124787 5.66749209 3.1635377 4.169283 0 2 C0 1.34 0 0.68 0 0 Z " fill="#6F3722" transform="translate(158,314)"/>
<path d="M0 0 C-1.28813342 0.83878455 -2.58063256 1.67086783 -3.875 2.5 C-4.59429687 2.9640625 -5.31359375 3.428125 -6.0546875 3.90625 C-8 5 -8 5 -10 5 C-10 4.01 -10 3.02 -10 2 C-3.375 -1.125 -3.375 -1.125 0 0 Z " fill="#E8592F" transform="translate(322,311)"/>
<path d="M0 0 C0.66 0.33 1.32 0.66 2 1 C0.02 3.31 -1.96 5.62 -4 8 C-4.66 7.67 -5.32 7.34 -6 7 C-4.77065985 3.31197956 -3.06140622 2.27643027 0 0 Z " fill="#D74E2D" transform="translate(110,139)"/>
<path d="M0 0 C2.08901197 3.39464446 2.34361606 6.04841529 2 10 C1.34 10.66 0.68 11.32 0 12 C-0.66 8.37 -1.32 4.74 -2 1 C-1.34 0.67 -0.68 0.34 0 0 Z " fill="#4C342B" transform="translate(78,113)"/>
<path d="M0 0 C0.66 0 1.32 0 2 0 C1.42676569 3.86933162 -0.38953552 6.15222057 -3 9 C-3.66 9 -4.32 9 -5 9 C-3.7580393 5.56072421 -2.44259716 2.74792181 0 0 Z " fill="#422E1D" transform="translate(344,57)"/>
<path d="M0 0 C0.33 0.66 0.66 1.32 1 2 C1.99 2 2.98 2 4 2 C4 2.99 4 3.98 4 5 C4.598125 5.28875 5.19625 5.5775 5.8125 5.875 C8 7 8 7 11 9 C10.67 9.66 10.34 10.32 10 11 C8.32471737 9.74054645 6.65997386 8.46706318 5 7.1875 C4.071875 6.47980469 3.14375 5.77210937 2.1875 5.04296875 C1.465625 4.36878906 0.74375 3.69460937 0 3 C0 2.01 0 1.02 0 0 Z " fill="#A95235" transform="translate(126,54)"/>
<path d="M0 0 C0.763125 0.0825 1.52625 0.165 2.3125 0.25 C2.6425 0.91 2.9725 1.57 3.3125 2.25 C0.5 3.8125 0.5 3.8125 -2.6875 5.25 C-3.6775 4.92 -4.6675 4.59 -5.6875 4.25 C-3.34903846 0.31153846 -3.34903846 0.31153846 0 0 Z " fill="#D8562F" transform="translate(302.6875,318.75)"/>
<path d="M0 0 C4.75481646 0.57634139 7.97048212 2.55068521 12 5 C11.67 5.66 11.34 6.32 11 7 C6.89188572 5.55007731 3.53144334 3.54592427 0 1 C0 0.67 0 0.34 0 0 Z " fill="#D33C2F" transform="translate(66,274)"/>
<path d="M0 0 C1.65 1.65 3.3 3.3 5 5 C4.67 5.99 4.34 6.98 4 8 C3.01 8.33 2.02 8.66 1 9 C1 8.34 1 7.68 1 7 C0.34 6.67 -0.32 6.34 -1 6 C-0.67 5.01 -0.34 4.02 0 3 C0 2.01 0 1.02 0 0 Z " fill="#F8A429" transform="translate(420,242)"/>
<path d="M0 0 C4.2742558 1.5830577 6.26531794 4.50568404 9 8 C4.75153925 7.52794881 2.73180712 5.11122478 0 2 C0 1.34 0 0.68 0 0 Z " fill="#4C271B" transform="translate(82,32)"/>
<path d="M0 0 C2.97 0 5.94 0 9 0 C9.33 0.99 9.66 1.98 10 3 C8.02 3.66 6.04 4.32 4 5 C4.33 4.01 4.66 3.02 5 2 C3.35 1.67 1.7 1.34 0 1 C0 0.67 0 0.34 0 0 Z " fill="#5B3D27" transform="translate(361,29)"/>
<path d="M0 0 C0.66 0.33 1.32 0.66 2 1 C1.67 1.99 1.34 2.98 1 4 C-1.875 4.625 -1.875 4.625 -5 5 C-5.66 4.34 -6.32 3.68 -7 3 C-6 2 -6 2 -2.9375 1.9375 C-1.4834375 1.9684375 -1.4834375 1.9684375 0 2 C0 1.34 0 0.68 0 0 Z " fill="#EB5631" transform="translate(308,315)"/>
<path d="M0 0 C1.88391785 3.26545761 2.49287967 6.28111761 3 10 C2.01 9.67 1.02 9.34 0 9 C-1.1875 6.4375 -1.1875 6.4375 -2 4 C-1.34 4 -0.68 4 0 4 C0 2.68 0 1.36 0 0 Z " fill="#503922" transform="translate(209,251)"/>
<path d="M0 0 C-0.99 0.66 -1.98 1.32 -3 2 C-3.99 1.67 -4.98 1.34 -6 1 C-6 1.66 -6 2.32 -6 3 C-7.65 2.67 -9.3 2.34 -11 2 C-6.80312837 -0.79791442 -4.79748656 -1.16695619 0 0 Z " fill="#F18A1F" transform="translate(410,250)"/>
<path d="M0 0 C7.26153846 -0.49230769 7.26153846 -0.49230769 11 2 C11.66 2.66 12.32 3.32 13 4 C11.20676747 3.71812064 9.41542874 3.4241719 7.625 3.125 C6.62726563 2.96257812 5.62953125 2.80015625 4.6015625 2.6328125 C2 2 2 2 0 0 Z " fill="#4E4134" transform="translate(179,242)"/>
<path d="M0 0 C2.64 0.33 5.28 0.66 8 1 C8.33 1.99 8.66 2.98 9 4 C5.7 3.67 2.4 3.34 -1 3 C-0.67 2.01 -0.34 1.02 0 0 Z " fill="#F3A627" transform="translate(385,237)"/>
<path d="M0 0 C0.33 0 0.66 0 1 0 C1.33 2.64 1.66 5.28 2 8 C-0.475 7.01 -0.475 7.01 -3 6 C-2 4 -1 2 0 0 Z " fill="#D79434" transform="translate(277,316)"/>
<path d="M0 0 C0.99 1.32 1.98 2.64 3 4 C1.68 4 0.36 4 -1 4 C-1 4.66 -1 5.32 -1 6 C-0.34 6.33 0.32 6.66 1 7 C-0.32 7 -1.64 7 -3 7 C-3.33 5.35 -3.66 3.7 -4 2 C-2.68 1.34 -1.36 0.68 0 0 Z " fill="#F0733A" transform="translate(378,297)"/>
<path d="M0 0 C0 0.66 0 1.32 0 2 C-2.97 3.32 -5.94 4.64 -9 6 C-7 2 -7 2 -4.5 0.75 C-2 0 -2 0 0 0 Z " fill="#EA702A" transform="translate(421,283)"/>
<path d="M0 0 C2.97 1.65 5.94 3.3 9 5 C9 5.66 9 6.32 9 7 C5.66666667 5.33333333 2.33333333 3.66666667 -1 2 C-0.67 1.34 -0.34 0.68 0 0 Z " fill="#D73D2A" transform="translate(74,262)"/>
<path d="M0 0 C0.66 0 1.32 0 2 0 C1.39009109 3.55780196 0.4216319 6.6828589 -1 10 C-1.66 9.67 -2.32 9.34 -3 9 C-2.01 6.03 -1.02 3.06 0 0 Z " fill="#98542F" transform="translate(365,72)"/>
<path d="M0 0 C0.99 0.66 1.98 1.32 3 2 C1.35 3.98 -0.3 5.96 -2 8 C-2.66 7.34 -3.32 6.68 -4 6 C-3.34 4.68 -2.68 3.36 -2 2 C-1.34 2 -0.68 2 0 2 C0 1.34 0 0.68 0 0 Z " fill="#573E2C" transform="translate(349,50)"/>
<path d="M0 0 C0.66 0.66 1.32 1.32 2 2 C-0.97 4.475 -0.97 4.475 -4 7 C-4 5.35 -4 3.7 -4 2 C-2.68 1.34 -1.36 0.68 0 0 Z " fill="#94522B" transform="translate(331,51)"/>
<path d="M0 0 C0.99 0 1.98 0 3 0 C3 2.97 3 5.94 3 9 C2.01 9.495 2.01 9.495 1 10 C0.67 6.7 0.34 3.4 0 0 Z " fill="#CF4D31" transform="translate(65,47)"/>
<path d="M0 0 C0 0.99 0 1.98 0 3 C-3.96 4.98 -3.96 4.98 -8 7 C-8.33 6.34 -8.66 5.68 -9 5 C-6.03 3.35 -3.06 1.7 0 0 Z " fill="#DC782B" transform="translate(363,15)"/>
<path d="M0 0 C2.64 1.98 5.28 3.96 8 6 C7.34 6.66 6.68 7.32 6 8 C1.3125 4.38671875 1.3125 4.38671875 0 3 C0 2.01 0 1.02 0 0 Z " fill="#E48126" transform="translate(194,301)"/>
<path d="M0 0 C0.99 0.33 1.98 0.66 3 1 C0.69 3.64 -1.62 6.28 -4 9 C-4.33 8.01 -4.66 7.02 -5 6 C-3.59554165 3.7363436 -1.8032087 1.9791315 0 0 Z " fill="#E35624" transform="translate(323,292)"/>
<path d="M0 0 C3.4375 0.8125 3.4375 0.8125 7 2 C7.33 2.99 7.66 3.98 8 5 C4.62537285 4.45276317 2.91765 3.9451 0 2 C0 1.34 0 0.68 0 0 Z " fill="#6C3428" transform="translate(67,290)"/>
<path d="M0 0 C0.66 0.66 1.32 1.32 2 2 C-4.75 6 -4.75 6 -7 6 C-6 3 -6 3 -2.9375 1.3125 C-1.968125 0.879375 -0.99875 0.44625 0 0 Z " fill="#E96E2A" transform="translate(435,281)"/>
<path d="M0 0 C0 0.66 0 1.32 0 2 C-2.75 4.6875 -2.75 4.6875 -6 7 C-8.203125 6.64453125 -8.203125 6.64453125 -10 6 C-8.71283353 4.99421411 -7.42011342 3.99553202 -6.125 3 C-5.40570313 2.443125 -4.68640625 1.88625 -3.9453125 1.3125 C-2 0 -2 0 0 0 Z " fill="#D56B35" transform="translate(175,94)"/>
<path d="M0 0 C2.625 1.25 2.625 1.25 5 3 C5 3.99 5 4.98 5 6 C1.34683329 4.75023244 0.21934164 4.32901247 -2 1 C-1.34 0.67 -0.68 0.34 0 0 Z " fill="#DF8C3A" transform="translate(213,319)"/>
<path d="M0 0 C1.32 0.33 2.64 0.66 4 1 C4 4.10551666 3.4606285 5.35261084 2 8 C0.74335022 5.09399739 0 3.20395416 0 0 Z " fill="#E2932F" transform="translate(206,240)"/>
<path d="M0 0 C1 2 1 2 0.3125 4.5 C-1.15567038 7.29651501 -2.09303901 7.93411431 -5 9 C-3.7508258 5.54074837 -2.32472205 2.85306797 0 0 Z " fill="#E03837" transform="translate(47,217)"/>
<path d="M0 0 C0.66 0 1.32 0 2 0 C0.52307692 5.66153846 0.52307692 5.66153846 -2.125 7.375 C-3.053125 7.684375 -3.053125 7.684375 -4 8 C-2.87548273 5.0280615 -1.77706209 2.66559313 0 0 Z " fill="#D53932" transform="translate(61,195)"/>
<path d="M0 0 C0.99 0.495 0.99 0.495 2 1 C2.59355614 3.64860427 2.74209269 6.29197322 3 9 C2.01 9.495 2.01 9.495 1 10 C0.67 6.7 0.34 3.4 0 0 Z " fill="#6B3A2C" transform="translate(87,86)"/>
<path d="M0 0 C-1.24976756 3.65316671 -1.67098753 4.78065836 -5 7 C-5.33 5.68 -5.66 4.36 -6 3 C-2.25 0 -2.25 0 0 0 Z " fill="#443227" transform="translate(339,67)"/>
<path d="M0 0 C1.8125 0.125 1.8125 0.125 4 1 C5.75 4.0625 5.75 4.0625 7 7 C4.13302508 5.71480435 2.02392288 4.42870746 0 2 C0 1.34 0 0.68 0 0 Z " fill="#42261E" transform="translate(103,55)"/>
<path d="M0 0 C3 1.8125 3 1.8125 6 4 C6 4.99 6 5.98 6 7 C3.53199953 5.84826645 1.95216435 4.95216435 0 3 C0 2.01 0 1.02 0 0 Z " fill="#462A21" transform="translate(97,47)"/>
<path d="M0 0 C0.99 0.33 1.98 0.66 3 1 C2.67 2.32 2.34 3.64 2 5 C2.66 5.33 3.32 5.66 4 6 C3.01 6 2.02 6 1 6 C-0.6875 3.5 -0.6875 3.5 -2 1 C-1.34 0.67 -0.68 0.34 0 0 Z " fill="#E5902E" transform="translate(198,225)"/>
<path d="M0 0 C6.57142857 4 6.57142857 4 8 8 C5.04987143 6.63029745 2.4347778 5.17390875 0 3 C0 2.01 0 1.02 0 0 Z " fill="#E9A426" transform="translate(341,139)"/>
<path d="M0 0 C0.66 0 1.32 0 2 0 C2 1.32 2 2.64 2 4 C2.99 4.33 3.98 4.66 5 5 C4.67 5.66 4.34 6.32 4 7 C2.02 5.35 0.04 3.7 -2 2 C-1.34 1.34 -0.68 0.68 0 0 Z " fill="#C85D38" transform="translate(104,35)"/>
<path d="M0 0 C2.29633824 3.44450737 2.54016485 5.93812283 3 10 C0.51280729 7.08025204 -0.58572305 4.83206182 -1 1 C-0.67 0.67 -0.34 0.34 0 0 Z " fill="#493026" transform="translate(99,129)"/>
<path d="M0 0 C0.66 0 1.32 0 2 0 C1.34 2.97 0.68 5.94 0 9 C-0.66 8.67 -1.32 8.34 -2 8 C-1.125 1.125 -1.125 1.125 0 0 Z " fill="#CE6E2B" transform="translate(382,51)"/>
<path d="M0 0 C0.66 0 1.32 0 2 0 C2 0.66 2 1.32 2 2 C1.34 2 0.68 2 0 2 C0 1.34 0 0.68 0 0 Z " fill="#A37437" transform="translate(203,254)"/>
<path d="M0 0 C2 1 2 1 2 1 Z " fill="#5E5141" transform="translate(248,350)"/>
<path d="M0 0 C2 1 2 1 2 1 Z " fill="#A14B3D" transform="translate(82,158)"/>
<path d="M0 0 C2 1 2 1 2 1 Z " fill="#B17A31" transform="translate(345,139)"/>
<path d="" fill="#AE7830" transform="translate(0,0)"/>
<path d="M0 0 C2 1 2 1 2 1 Z " fill="#93472C" transform="translate(88,42)"/>
<path d="" fill="#845535" transform="translate(0,0)"/>
<path d="" fill="#84553E" transform="translate(0,0)"/>
<path d="" fill="#DE913C" transform="translate(0,0)"/>
<path d="" fill="#DB6734" transform="translate(0,0)"/>
<path d="" fill="#C47038" transform="translate(0,0)"/>
<path d="" fill="#EA813A" transform="translate(0,0)"/>
<path d="" fill="#BC5E2A" transform="translate(0,0)"/>
<path d="" fill="#EE8F39" transform="translate(0,0)"/>
<path d="" fill="#ED9039" transform="translate(0,0)"/>
<path d="" fill="#E28B39" transform="translate(0,0)"/>
<path d="" fill="#DE8D30" transform="translate(0,0)"/>
<path d="" fill="#F09E2F" transform="translate(0,0)"/>
<path d="" fill="#D78D36" transform="translate(0,0)"/>
<path d="" fill="#EA9831" transform="translate(0,0)"/>
<path d="" fill="#BC4038" transform="translate(0,0)"/>
<path d="" fill="#E2982F" transform="translate(0,0)"/>
<path d="" fill="#E2962C" transform="translate(0,0)"/>
<path d="" fill="#F2B12E" transform="translate(0,0)"/>
<path d="" fill="#AD5040" transform="translate(0,0)"/>
<path d="" fill="#DB9B3C" transform="translate(0,0)"/>
<path d="" fill="#AB5C3B" transform="translate(0,0)"/>
<path d="" fill="#855224" transform="translate(0,0)"/>
<path d="" fill="#704337" transform="translate(0,0)"/>
<path d="" fill="#764830" transform="translate(0,0)"/>
<path d="" fill="#7B492C" transform="translate(0,0)"/>
<path d="" fill="#774F38" transform="translate(0,0)"/>
<path d="" fill="#663B20" transform="translate(0,0)"/>
<path d="" fill="#7D4639" transform="translate(0,0)"/>
<path d="" fill="#95513D" transform="translate(0,0)"/>
<path d="" fill="#AA5B2B" transform="translate(0,0)"/>
<path d="" fill="#C55F31" transform="translate(0,0)"/>
<path d="" fill="#B05C40" transform="translate(0,0)"/>
<path d="" fill="#D37A41" transform="translate(0,0)"/>
</svg>
